<?xml version="1.0" standalone="no"?>
<!DOCTYPE svg PUBLIC "-//W3C//DTD SVG 20010904//EN"
 "http://www.w3.org/TR/2001/REC-SVG-20010904/DTD/svg10.dtd">
<svg version="1.0" xmlns="http://www.w3.org/2000/svg"
 width="341.000000pt" height="341.000000pt" viewBox="0 0 341.000000 341.000000"
 preserveAspectRatio="xMidYMid meet">
<metadata>
Created by potrace 1.11, written by Peter Selinger 2001-2013
</metadata>
<g transform="translate(0.000000,341.000000) scale(0.100000,-0.100000)"
fill="#000000" stroke="none">
<path d="M1505 3404 c-145 -12 -400 -67 -480 -104 -11 -5 -46 -20 -77 -34 -32
-14 -90 -46 -130 -71 -254 -165 -386 -374 -434 -689 -18 -120 -17 -183 3 -264
15 -62 22 -73 90 -140 64 -63 242 -192 265 -192 5 0 27 -9 51 -19 102 -47 205
-63 295 -46 31 6 53 3 80 -8 102 -43 176 -68 187 -63 8 2 11 15 8 30 -3 14 -3
26 1 26 3 0 69 -25 146 -56 78 -31 144 -53 147 -50 3 3 -11 24 -31 47 -56 66
-51 68 59 18 31 -14 114 -72 150 -105 73 -67 220 -265 337 -454 53 -86 92
-132 211 -250 80 -79 143 -148 140 -154 -3 -5 -2 -6 4 -3 9 6 111 -100 144
-150 41 -61 26 -214 -34 -353 -35 -80 -38 -110 -12 -110 21 0 148 95 214 161
196 195 291 497 247 786 -34 223 -109 371 -266 521 -76 73 -201 142 -393 216
-61 24 -121 47 -132 51 -11 5 -22 9 -25 10 -10 2 -476 155 -555 181 -79 27
-107 38 -215 85 -87 38 -192 111 -235 165 -34 41 -40 55 -39 94 3 160 199 263
469 247 265 -16 391 -116 442 -349 l16 -78 419 0 418 0 0 53 c-1 198 -71 426
-177 575 -170 239 -434 392 -783 453 -113 20 -404 33 -525 23z"/>
<path d="M306 2247 c-5 -58 5 -229 20 -307 25 -134 79 -267 151 -368 42 -59
89 -112 98 -112 3 0 25 -16 51 -35 55 -43 69 -44 60 -7 -13 52 -23 112 -18
112 2 0 22 -14 44 -32 144 -114 390 -245 619 -331 146 -55 329 -108 386 -112
29 -2 62 -9 73 -15 64 -34 214 -57 299 -45 60 8 115 42 119 73 4 26 -18 53
-166 205 -223 230 -335 280 -892 396 -80 17 -155 34 -167 37 -45 13 -22 -16
57 -72 138 -96 116 -97 -72 -3 -229 115 -405 247 -521 391 -47 59 -104 177
-113 234 -9 65 -20 62 -28 -9z"/>
<path d="M300 1133 c0 -26 29 -225 35 -244 5 -14 12 -15 43 -8 20 5 94 9 164
9 142 0 331 -28 543 -80 70 -18 129 -29 132 -26 3 3 -5 10 -18 15 -63 24 -295
117 -389 156 -233 97 -483 195 -496 195 -8 0 -14 -8 -14 -17z"/>
<path d="M2241 1005 c-31 -123 -247 -224 -611 -285 -41 -7 -79 -17 -84 -21 -5
-4 22 -17 60 -28 38 -11 114 -33 169 -49 297 -88 638 -225 653 -264 2 -4 10
-8 18 -8 22 0 107 -89 100 -105 -3 -8 -1 -17 4 -20 12 -8 33 35 69 141 37 111
42 136 43 212 1 68 -1 72 -128 203 -35 36 -62 69 -59 72 3 4 2 5 -1 2 -4 -2
-51 39 -106 93 -54 53 -103 98 -107 100 -5 2 -14 -18 -20 -43z"/>
<path d="M378 833 c-23 -6 -23 -16 6 -99 51 -149 123 -269 231 -383 180 -189
436 -301 780 -341 205 -23 577 -6 775 35 153 32 370 109 370 132 0 33 -44 95
-97 139 -32 26 -57 51 -55 56 1 5 -2 7 -7 3 -6 -3 -28 3 -50 14 -134 69 -551
207 -954 316 -394 106 -567 135 -812 134 -93 -1 -178 -3 -187 -6z"/>
</g>
</svg>
