<svg xmlns="http://www.w3.org/2000/svg" xmlns:xlink="http://www.w3.org/1999/xlink" width="664px" height="225px" version="1.1" style="background-color: rgb(255, 255, 255);"><defs><style type="text/css">ul { margin-top: 0px; margin-bottom: 10px } &#xa;ol { margin-top: 0px; margin-bottom: 10px } &#xa;ul { margin-top: 0px; margin-bottom: 10px } &#xa;ol { margin-top: 0px; margin-bottom: 10px } &#xa;ul { margin-top: 0px; margin-bottom: 10px } &#xa;ol { margin-top: 0px; margin-bottom: 10px } &#xa;</style></defs><g transform="translate(0.5,0.5)"><rect x="1" y="1" width="18" height="221" fill="none" stroke="#000000" stroke-width="2" pointer-events="none"/><g fill="#000000" font-family="Helvetica" text-anchor="middle" font-size="12px" transform="rotate(-90,9.5,112)"><text x="9" y="115.5">Admin</text></g><rect x="19" y="1" width="642" height="221" fill="none" stroke="#000000" stroke-width="2" pointer-events="none"/><ellipse cx="44" cy="112" rx="10" ry="10" fill="black" stroke="#000000" pointer-events="none"/><ellipse cx="44" cy="112" rx="10" ry="10" fill="none" stroke="#000000" pointer-events="none"/><rect x="82" y="91.5" width="60" height="40" rx="15" ry="15" fill="#7acff5" stroke="#000000" pointer-events="none"/><rect x="82" y="91.5" width="60" height="40" rx="15" ry="15" fill="none" stroke="#000000" pointer-events="none"/><g fill="#000000" font-family="Helvetica" text-anchor="middle" font-size="12px"><text x="111.5" y="115">Log in</text></g><path d="M 54 112 L 64 112 Q 74 112 76.88 112 L 79.76 112" fill="none" stroke="#000000" stroke-miterlimit="10" pointer-events="none"/><path d="M 68.88 118 L 80.88 112 L 68.88 106" fill="none" stroke="#000000" stroke-miterlimit="10" pointer-events="none"/><rect x="171" y="96" width="100" height="31" rx="15" ry="15" fill="#7acff5" stroke="#000000" pointer-events="none"/><rect x="171" y="96" width="100" height="31" rx="15" ry="15" fill="none" stroke="#000000" pointer-events="none"/><g fill="#000000" font-family="Helvetica" text-anchor="middle" font-size="12px"><text x="220.5" y="115">View products</text></g><path d="M 142 112 L 149.5 112 Q 157 112 162.88 112 L 168.76 112" fill="none" stroke="#000000" stroke-miterlimit="10" pointer-events="none"/><path d="M 157.88 118 L 169.88 112 L 157.88 106" fill="none" stroke="#000000" stroke-miterlimit="10" pointer-events="none"/><path d="M 434 99 L 441 111.5 L 434 124 L 427 111.5 Z" fill="#7acff5" stroke="#000000" stroke-miterlimit="10" pointer-events="none"/><path d="M 434 99 L 441 111.5 L 434 124 L 427 111.5 Z" fill="none" stroke="#000000" stroke-miterlimit="10" pointer-events="none"/><g fill="#000000" font-family="Helvetica" text-anchor="middle" font-size="12px"><text x="433.5" y="145">Select action</text></g><rect x="298" y="91" width="99" height="41" rx="15" ry="15" fill="#7acff5" stroke="#000000" pointer-events="none"/><rect x="298" y="91" width="99" height="41" rx="15" ry="15" fill="none" stroke="#000000" pointer-events="none"/><g fill="#000000" font-family="Helvetica" text-anchor="middle" font-size="12px"><text x="347" y="115">Select a product</text></g><path d="M 271 112 L 278 112 Q 285 112 290.38 112 L 295.76 112" fill="none" stroke="#000000" stroke-miterlimit="10" pointer-events="none"/><path d="M 284.88 118 L 296.88 112 L 284.88 106" fill="none" stroke="#000000" stroke-miterlimit="10" pointer-events="none"/><path d="M 397 112 L 404 112 Q 411 112 417.88 112 L 424.76 112" fill="none" stroke="#000000" stroke-miterlimit="10" pointer-events="none"/><path d="M 413.88 118 L 425.88 112 L 413.88 106" fill="none" stroke="#000000" stroke-miterlimit="10" pointer-events="none"/><rect x="388" y="23" width="92" height="38" rx="15" ry="15" fill="#7acff5" stroke="#000000" pointer-events="none"/><rect x="388" y="23" width="92" height="38" rx="15" ry="15" fill="none" stroke="#000000" pointer-events="none"/><g fill="#000000" font-family="Helvetica" text-anchor="middle" font-size="12px"><text x="433.5" y="45.5">Edit product</text></g><rect x="387" y="157" width="94" height="43" rx="15" ry="15" fill="#7acff5" stroke="#000000" pointer-events="none"/><rect x="387" y="157" width="94" height="43" rx="15" ry="15" fill="none" stroke="#000000" pointer-events="none"/><g fill="#000000" font-family="Helvetica" text-anchor="middle" font-size="12px"><text x="433.5" y="182">Delete product</text></g><path d="M 434 99 L 434 63.24" fill="none" stroke="#000000" stroke-miterlimit="10" pointer-events="none"/><path d="M 440 74.12 L 434 62.12 L 428 74.12" fill="none" stroke="#000000" stroke-miterlimit="10" pointer-events="none"/><path d="M 434 124 L 434 154.76" fill="none" stroke="#000000" stroke-miterlimit="10" pointer-events="none"/><path d="M 428 143.88 L 434 155.88 L 440 143.88" fill="none" stroke="#000000" stroke-miterlimit="10" pointer-events="none"/><ellipse cx="546" cy="179" rx="6.666666666666667" ry="6.666666666666667" fill="black" stroke="#000000" pointer-events="none"/><ellipse cx="546" cy="179" rx="10" ry="10" fill="none" stroke="#000000" pointer-events="none"/><path d="M 481 179 L 499 179 Q 509 179 519 179 L 533.76 179" fill="none" stroke="#000000" stroke-miterlimit="10" pointer-events="none"/><path d="M 522.88 185 L 534.88 179 L 522.88 173" fill="none" stroke="#000000" stroke-miterlimit="10" pointer-events="none"/><rect x="496" y="22" width="155" height="39" rx="15" ry="15" fill="#7acff5" stroke="#000000" pointer-events="none"/><rect x="496" y="22" width="155" height="39" rx="15" ry="15" fill="none" stroke="#000000" pointer-events="none"/><g fill="#000000" font-family="Helvetica" text-anchor="middle" font-size="12px"><text x="573" y="45">Add/Alter the product info</text></g><path d="M 480 42 L 493.76 42" fill="none" stroke="#000000" stroke-miterlimit="10" pointer-events="none"/><path d="M 482.88 48 L 494.88 42 L 482.88 36" fill="none" stroke="#000000" stroke-miterlimit="10" pointer-events="none"/><path d="M 574 61 L 574 105 Q 574 115 564 115 L 558 115 Q 552 115 552 125 L 552 172.76" fill="none" stroke="#000000" stroke-miterlimit="10" pointer-events="none"/><path d="M 546 161.88 L 552 173.88 L 558 161.88" fill="none" stroke="#000000" stroke-miterlimit="10" pointer-events="none"/><path d="M 54 112 L 64 112 Q 74 112 76.88 112 L 79.76 112" fill="none" stroke="#000000" stroke-miterlimit="10" pointer-events="none"/><path d="M 68.88 118 L 80.88 112 L 68.88 106" fill="none" stroke="#000000" stroke-miterlimit="10" pointer-events="none"/><path d="M 54 112 L 64 112 Q 74 112 76.88 112 L 79.76 112" fill="none" stroke="#000000" stroke-miterlimit="10" pointer-events="none"/><path d="M 68.88 118 L 80.88 112 L 68.88 106" fill="none" stroke="#000000" stroke-miterlimit="10" pointer-events="none"/><path d="M 142 112 L 149.5 112 Q 157 112 162.88 112 L 168.76 112" fill="none" stroke="#000000" stroke-miterlimit="10" pointer-events="none"/><path d="M 157.88 118 L 169.88 112 L 157.88 106" fill="none" stroke="#000000" stroke-miterlimit="10" pointer-events="none"/><path d="M 142 112 L 149.5 112 Q 157 112 162.88 112 L 168.76 112" fill="none" stroke="#000000" stroke-miterlimit="10" pointer-events="none"/><path d="M 157.88 118 L 169.88 112 L 157.88 106" fill="none" stroke="#000000" stroke-miterlimit="10" pointer-events="none"/><path d="M 271 112 L 278 112 Q 285 112 290.38 112 L 295.76 112" fill="none" stroke="#000000" stroke-miterlimit="10" pointer-events="none"/><path d="M 284.88 118 L 296.88 112 L 284.88 106" fill="none" stroke="#000000" stroke-miterlimit="10" pointer-events="none"/><path d="M 397 112 L 404 112 Q 411 112 417.88 112 L 424.76 112" fill="none" stroke="#000000" stroke-miterlimit="10" pointer-events="none"/><path d="M 413.88 118 L 425.88 112 L 413.88 106" fill="none" stroke="#000000" stroke-miterlimit="10" pointer-events="none"/><path d="M 434 99 L 434 63.24" fill="none" stroke="#000000" stroke-miterlimit="10" pointer-events="none"/><path d="M 440 74.12 L 434 62.12 L 428 74.12" fill="none" stroke="#000000" stroke-miterlimit="10" pointer-events="none"/><path d="M 434 124 L 434 154.76" fill="none" stroke="#000000" stroke-miterlimit="10" pointer-events="none"/><path d="M 428 143.88 L 434 155.88 L 440 143.88" fill="none" stroke="#000000" stroke-miterlimit="10" pointer-events="none"/><path d="M 271 112 L 278 112 Q 285 112 290.38 112 L 295.76 112" fill="none" stroke="#000000" stroke-miterlimit="10" pointer-events="none"/><path d="M 284.88 118 L 296.88 112 L 284.88 106" fill="none" stroke="#000000" stroke-miterlimit="10" pointer-events="none"/><path d="M 397 112 L 404 112 Q 411 112 417.88 112 L 424.76 112" fill="none" stroke="#000000" stroke-miterlimit="10" pointer-events="none"/><path d="M 413.88 118 L 425.88 112 L 413.88 106" fill="none" stroke="#000000" stroke-miterlimit="10" pointer-events="none"/><path d="M 434 99 L 434 63.24" fill="none" stroke="#000000" stroke-miterlimit="10" pointer-events="none"/><path d="M 440 74.12 L 434 62.12 L 428 74.12" fill="none" stroke="#000000" stroke-miterlimit="10" pointer-events="none"/><path d="M 480 42 L 493.76 42" fill="none" stroke="#000000" stroke-miterlimit="10" pointer-events="none"/><path d="M 482.88 48 L 494.88 42 L 482.88 36" fill="none" stroke="#000000" stroke-miterlimit="10" pointer-events="none"/><path d="M 434 124 L 434 154.76" fill="none" stroke="#000000" stroke-miterlimit="10" pointer-events="none"/><path d="M 428 143.88 L 434 155.88 L 440 143.88" fill="none" stroke="#000000" stroke-miterlimit="10" pointer-events="none"/><path d="M 481 179 L 499 179 Q 509 179 519 179 L 533.76 179" fill="none" stroke="#000000" stroke-miterlimit="10" pointer-events="none"/><path d="M 522.88 185 L 534.88 179 L 522.88 173" fill="none" stroke="#000000" stroke-miterlimit="10" pointer-events="none"/><path d="M 481 179 L 499 179 Q 509 179 519 179 L 533.76 179" fill="none" stroke="#000000" stroke-miterlimit="10" pointer-events="none"/><path d="M 522.88 185 L 534.88 179 L 522.88 173" fill="none" stroke="#000000" stroke-miterlimit="10" pointer-events="none"/><path d="M 574 61 L 574 105 Q 574 115 564 115 L 558 115 Q 552 115 552 125 L 552 172.76" fill="none" stroke="#000000" stroke-miterlimit="10" pointer-events="none"/><path d="M 546 161.88 L 552 173.88 L 558 161.88" fill="none" stroke="#000000" stroke-miterlimit="10" pointer-events="none"/><path d="M 480 42 L 493.76 42" fill="none" stroke="#000000" stroke-miterlimit="10" pointer-events="none"/><path d="M 482.88 48 L 494.88 42 L 482.88 36" fill="none" stroke="#000000" stroke-miterlimit="10" pointer-events="none"/><path d="M 574 61 L 574 105 Q 574 115 564 115 L 558 115 Q 552 115 552 125 L 552 172.76" fill="none" stroke="#000000" stroke-miterlimit="10" pointer-events="none"/><path d="M 546 161.88 L 552 173.88 L 558 161.88" fill="none" stroke="#000000" stroke-miterlimit="10" pointer-events="none"/></g><g fill="#787878" font-family="Arial,Helvetica" font-size="12px"><text x="6" y="15">Visual Paradigm Online Express Edition</text></g><g fill="#787878" font-family="Arial,Helvetica" text-anchor="end" font-size="12px"><text x="658" y="218">Visual Paradigm Online Express Edition</text></g></svg>