<svg xmlns="http://www.w3.org/2000/svg" xmlns:xlink="http://www.w3.org/1999/xlink" width="1541px" height="456px" version="1.1" style="background-color: rgb(255, 255, 255);"><defs><style type="text/css">ul { margin-top: 0px; margin-bottom: 10px } &#xa;ol { margin-top: 0px; margin-bottom: 10px } &#xa;ul { margin-top: 0px; margin-bottom: 10px } &#xa;ol { margin-top: 0px; margin-bottom: 10px } &#xa;ul { margin-top: 0px; margin-bottom: 10px } &#xa;ol { margin-top: 0px; margin-bottom: 10px } &#xa;</style></defs><g transform="translate(0.5,0.5)"><rect x="5" y="0" width="497" height="276" fill="#d5e8d4" stroke="#000000" pointer-events="none"/><rect x="5" y="0" width="497" height="276" fill="none" stroke="#000000" pointer-events="none"/><path d="M 487 5 L 497 5" fill="none" stroke="#000000" stroke-miterlimit="10" pointer-events="none"/><path d="M 497 5 L 497 21" fill="none" stroke="#000000" stroke-miterlimit="10" pointer-events="none"/><path d="M 487 21 L 497 21" fill="none" stroke="#000000" stroke-miterlimit="10" pointer-events="none"/><path d="M 487 5 L 487 8" fill="none" stroke="#000000" stroke-miterlimit="10" pointer-events="none"/><rect x="484" y="8" width="7" height="4" fill="none" stroke="#000000" pointer-events="none"/><path d="M 487 12 L 487 14" fill="none" stroke="#000000" stroke-miterlimit="10" pointer-events="none"/><rect x="484" y="14" width="7" height="4" fill="none" stroke="#000000" pointer-events="none"/><path d="M 487 18 L 487 21" fill="none" stroke="#000000" stroke-miterlimit="10" pointer-events="none"/><g fill="#000000" font-family="Helvetica" font-weight="bold" text-anchor="middle" font-size="12px"><text x="243.5" y="16.5">&lt;&lt;component&gt;&gt;</text><text x="243.5" y="30.5">Client App</text></g><rect x="321" y="60.5" width="136" height="40" fill="#000000" stroke="#000000" transform="translate(2,3)" opacity="0.25"/><rect x="321" y="60.5" width="136" height="40" fill="#b9e0a5" stroke="#000000" pointer-events="none"/><rect x="321" y="60.5" width="136" height="40" fill="none" stroke="#000000" pointer-events="none"/><path d="M 442 65.5 L 452 65.5" fill="none" stroke="#000000" stroke-miterlimit="10" pointer-events="none"/><path d="M 452 65.5 L 452 81.5" fill="none" stroke="#000000" stroke-miterlimit="10" pointer-events="none"/><path d="M 442 81.5 L 452 81.5" fill="none" stroke="#000000" stroke-miterlimit="10" pointer-events="none"/><path d="M 442 65.5 L 442 68.5" fill="none" stroke="#000000" stroke-miterlimit="10" pointer-events="none"/><rect x="439" y="68.5" width="7" height="4" fill="none" stroke="#000000" pointer-events="none"/><path d="M 442 72.5 L 442 74.5" fill="none" stroke="#000000" stroke-miterlimit="10" pointer-events="none"/><rect x="439" y="74.5" width="7" height="4" fill="none" stroke="#000000" pointer-events="none"/><path d="M 442 78.5 L 442 81.5" fill="none" stroke="#000000" stroke-miterlimit="10" pointer-events="none"/><g fill="#000000" font-family="Helvetica" font-weight="bold" text-anchor="middle" font-size="12px"><text x="379" y="77">&lt;&lt;component&gt;&gt;</text><text x="379" y="91">Client Session</text></g><rect x="496" y="74.62" width="12" height="12" fill="#b9e0a5" stroke="#000000" pointer-events="none"/><path d="M 496 81 L 486.5 81 Q 477 81 477 91 L 477 168 Q 477 178 467 178 L 457 178" fill="none" stroke="#000000" stroke-miterlimit="10" pointer-events="none"/><ellipse cx="254" cy="178" rx="10" ry="10" fill="#b9e0a5" stroke="#000000" pointer-events="none"/><ellipse cx="254" cy="178" rx="10" ry="10" fill="none" stroke="#000000" pointer-events="none"/><rect x="52" y="158" width="136" height="40" fill="#000000" stroke="#000000" transform="translate(2,3)" opacity="0.25"/><rect x="52" y="158" width="136" height="40" fill="#b9e0a5" stroke="#000000" pointer-events="none"/><rect x="52" y="158" width="136" height="40" fill="none" stroke="#000000" pointer-events="none"/><path d="M 173 163 L 183 163" fill="none" stroke="#000000" stroke-miterlimit="10" pointer-events="none"/><path d="M 183 163 L 183 179" fill="none" stroke="#000000" stroke-miterlimit="10" pointer-events="none"/><path d="M 173 179 L 183 179" fill="none" stroke="#000000" stroke-miterlimit="10" pointer-events="none"/><path d="M 173 163 L 173 166" fill="none" stroke="#000000" stroke-miterlimit="10" pointer-events="none"/><rect x="170" y="166" width="7" height="4" fill="none" stroke="#000000" pointer-events="none"/><path d="M 173 170 L 173 172" fill="none" stroke="#000000" stroke-miterlimit="10" pointer-events="none"/><rect x="170" y="172" width="7" height="4" fill="none" stroke="#000000" pointer-events="none"/><path d="M 173 176 L 173 179" fill="none" stroke="#000000" stroke-miterlimit="10" pointer-events="none"/><g fill="#000000" font-family="Helvetica" font-weight="bold" text-anchor="middle" font-size="12px"><text x="110" y="174.5">&lt;&lt;component&gt;&gt;</text><text x="110" y="188.5">GUI</text></g><path d="M 188 178 L 239 178" fill="none" stroke="#000000" stroke-miterlimit="10" pointer-events="none"/><path d="M 254 193 C 245.72 193 239 186.28 239 178 C 239 169.72 245.72 163 254 163" fill="none" stroke="#000000" stroke-miterlimit="10" pointer-events="none"/><rect x="321" y="158" width="136" height="40" fill="#000000" stroke="#000000" transform="translate(2,3)" opacity="0.25"/><rect x="321" y="158" width="136" height="40" fill="#b9e0a5" stroke="#000000" pointer-events="none"/><rect x="321" y="158" width="136" height="40" fill="none" stroke="#000000" pointer-events="none"/><path d="M 442 163 L 452 163" fill="none" stroke="#000000" stroke-miterlimit="10" pointer-events="none"/><path d="M 452 163 L 452 179" fill="none" stroke="#000000" stroke-miterlimit="10" pointer-events="none"/><path d="M 442 179 L 452 179" fill="none" stroke="#000000" stroke-miterlimit="10" pointer-events="none"/><path d="M 442 163 L 442 166" fill="none" stroke="#000000" stroke-miterlimit="10" pointer-events="none"/><rect x="439" y="166" width="7" height="4" fill="none" stroke="#000000" pointer-events="none"/><path d="M 442 170 L 442 172" fill="none" stroke="#000000" stroke-miterlimit="10" pointer-events="none"/><rect x="439" y="172" width="7" height="4" fill="none" stroke="#000000" pointer-events="none"/><path d="M 442 176 L 442 179" fill="none" stroke="#000000" stroke-miterlimit="10" pointer-events="none"/><g fill="#000000" font-family="Helvetica" font-weight="bold" text-anchor="middle" font-size="12px"><text x="379" y="174.5">&lt;&lt;component&gt;&gt;</text><text x="379" y="188.5">Client Router</text></g><path d="M 264 178 L 321 178" fill="none" stroke="#000000" stroke-miterlimit="10" pointer-events="none"/><path d="M 321 81 L 264 81 Q 254 81 254 91 L 254 163" fill="none" stroke="#000000" stroke-miterlimit="10" pointer-events="none"/><path d="M 239 178 C 239 169.72 245.72 163 254 163 C 262.28 163 269 169.72 269 178" fill="none" stroke="#000000" stroke-miterlimit="10" pointer-events="none"/><rect x="143" y="270" width="12" height="12" fill="#b9e0a5" stroke="#000000" pointer-events="none"/><path d="M 120 198 L 120 224 Q 120 234 130 234 L 139.5 234 Q 149 234 149 244 L 149 270" fill="none" stroke="#000000" stroke-miterlimit="10" pointer-events="none"/><ellipse cx="630" cy="81" rx="13" ry="13" fill="#67afcf" stroke="#000000" pointer-events="none"/><ellipse cx="630" cy="81" rx="13" ry="13" fill="none" stroke="#000000" pointer-events="none"/><g fill="#000000" font-family="Helvetica" font-weight="bold" text-anchor="middle" font-size="12px"><text x="629.5" y="113.5">API</text></g><rect x="763" y="2" width="775" height="429" fill="#7acff5" stroke="#000000" pointer-events="none"/><rect x="763" y="2" width="775" height="429" fill="none" stroke="#000000" pointer-events="none"/><path d="M 1523 7 L 1533 7" fill="none" stroke="#000000" stroke-miterlimit="10" pointer-events="none"/><path d="M 1533 7 L 1533 23" fill="none" stroke="#000000" stroke-miterlimit="10" pointer-events="none"/><path d="M 1523 23 L 1533 23" fill="none" stroke="#000000" stroke-miterlimit="10" pointer-events="none"/><path d="M 1523 7 L 1523 10" fill="none" stroke="#000000" stroke-miterlimit="10" pointer-events="none"/><rect x="1520" y="10" width="7" height="4" fill="none" stroke="#000000" pointer-events="none"/><path d="M 1523 14 L 1523 16" fill="none" stroke="#000000" stroke-miterlimit="10" pointer-events="none"/><rect x="1520" y="16" width="7" height="4" fill="none" stroke="#000000" pointer-events="none"/><path d="M 1523 20 L 1523 23" fill="none" stroke="#000000" stroke-miterlimit="10" pointer-events="none"/><g fill="#000000" font-family="Helvetica" font-weight="bold" text-anchor="middle" font-size="12px"><text x="1140.5" y="18.5">&lt;&lt;component&gt;&gt;</text><text x="1140.5" y="32.5">Server App</text></g><rect x="1309.5" y="345.5" width="196" height="44" fill="#000000" stroke="#000000" transform="translate(2,3)" opacity="0.25"/><rect x="1309.5" y="345.5" width="196" height="44" fill="#67afcf" stroke="#000000" pointer-events="none"/><rect x="1309.5" y="345.5" width="196" height="44" fill="none" stroke="#000000" pointer-events="none"/><path d="M 1490.5 350.5 L 1500.5 350.5" fill="none" stroke="#000000" stroke-miterlimit="10" pointer-events="none"/><path d="M 1500.5 350.5 L 1500.5 366.5" fill="none" stroke="#000000" stroke-miterlimit="10" pointer-events="none"/><path d="M 1490.5 366.5 L 1500.5 366.5" fill="none" stroke="#000000" stroke-miterlimit="10" pointer-events="none"/><path d="M 1490.5 350.5 L 1490.5 353.5" fill="none" stroke="#000000" stroke-miterlimit="10" pointer-events="none"/><rect x="1487.5" y="353.5" width="7" height="4" fill="none" stroke="#000000" pointer-events="none"/><path d="M 1490.5 357.5 L 1490.5 359.5" fill="none" stroke="#000000" stroke-miterlimit="10" pointer-events="none"/><rect x="1487.5" y="359.5" width="7" height="4" fill="none" stroke="#000000" pointer-events="none"/><path d="M 1490.5 363.5 L 1490.5 366.5" fill="none" stroke="#000000" stroke-miterlimit="10" pointer-events="none"/><g fill="#000000" font-family="Helvetica" font-weight="bold" text-anchor="middle" font-size="12px"><text x="1397.5" y="362">&lt;&lt;component&gt;&gt;</text><text x="1397.5" y="376">MongoDB</text></g><rect x="757" y="74.5" width="12" height="12" fill="#67afcf" stroke="#000000" pointer-events="none"/><rect x="894.5" y="58.5" width="196" height="44" fill="#000000" stroke="#000000" transform="translate(2,3)" opacity="0.25"/><rect x="894.5" y="58.5" width="196" height="44" fill="#67afcf" stroke="#000000" pointer-events="none"/><rect x="894.5" y="58.5" width="196" height="44" fill="none" stroke="#000000" pointer-events="none"/><path d="M 1075.5 63.5 L 1085.5 63.5" fill="none" stroke="#000000" stroke-miterlimit="10" pointer-events="none"/><path d="M 1085.5 63.5 L 1085.5 79.5" fill="none" stroke="#000000" stroke-miterlimit="10" pointer-events="none"/><path d="M 1075.5 79.5 L 1085.5 79.5" fill="none" stroke="#000000" stroke-miterlimit="10" pointer-events="none"/><path d="M 1075.5 63.5 L 1075.5 66.5" fill="none" stroke="#000000" stroke-miterlimit="10" pointer-events="none"/><rect x="1072.5" y="66.5" width="7" height="4" fill="none" stroke="#000000" pointer-events="none"/><path d="M 1075.5 70.5 L 1075.5 72.5" fill="none" stroke="#000000" stroke-miterlimit="10" pointer-events="none"/><rect x="1072.5" y="72.5" width="7" height="4" fill="none" stroke="#000000" pointer-events="none"/><path d="M 1075.5 76.5 L 1075.5 79.5" fill="none" stroke="#000000" stroke-miterlimit="10" pointer-events="none"/><g fill="#000000" font-family="Helvetica" font-weight="bold" text-anchor="middle" font-size="12px"><text x="982.5" y="75">&lt;&lt;component&gt;&gt;</text><text x="982.5" y="89">Authentication</text></g><rect x="894.5" y="145.5" width="196" height="44" fill="#000000" stroke="#000000" transform="translate(2,3)" opacity="0.25"/><rect x="894.5" y="145.5" width="196" height="44" fill="#67afcf" stroke="#000000" pointer-events="none"/><rect x="894.5" y="145.5" width="196" height="44" fill="none" stroke="#000000" pointer-events="none"/><path d="M 1075.5 150.5 L 1085.5 150.5" fill="none" stroke="#000000" stroke-miterlimit="10" pointer-events="none"/><path d="M 1085.5 150.5 L 1085.5 166.5" fill="none" stroke="#000000" stroke-miterlimit="10" pointer-events="none"/><path d="M 1075.5 166.5 L 1085.5 166.5" fill="none" stroke="#000000" stroke-miterlimit="10" pointer-events="none"/><path d="M 1075.5 150.5 L 1075.5 153.5" fill="none" stroke="#000000" stroke-miterlimit="10" pointer-events="none"/><rect x="1072.5" y="153.5" width="7" height="4" fill="none" stroke="#000000" pointer-events="none"/><path d="M 1075.5 157.5 L 1075.5 159.5" fill="none" stroke="#000000" stroke-miterlimit="10" pointer-events="none"/><rect x="1072.5" y="159.5" width="7" height="4" fill="none" stroke="#000000" pointer-events="none"/><path d="M 1075.5 163.5 L 1075.5 166.5" fill="none" stroke="#000000" stroke-miterlimit="10" pointer-events="none"/><g fill="#000000" font-family="Helvetica" font-weight="bold" text-anchor="middle" font-size="12px"><text x="982.5" y="162">&lt;&lt;component&gt;&gt;</text><text x="982.5" y="176">Router</text></g><path d="M 769 80.5 L 894.5 80.5" fill="none" stroke="#000000" stroke-miterlimit="10" pointer-events="none"/><path d="M 769 81 L 822 81 Q 832 81 832 91 L 832 158 Q 832 168 842 168 L 895 168" fill="none" stroke="#000000" stroke-miterlimit="10" pointer-events="none"/><rect x="1309.5" y="145.5" width="196" height="44" fill="#000000" stroke="#000000" transform="translate(2,3)" opacity="0.25"/><rect x="1309.5" y="145.5" width="196" height="44" fill="#67afcf" stroke="#000000" pointer-events="none"/><rect x="1309.5" y="145.5" width="196" height="44" fill="none" stroke="#000000" pointer-events="none"/><path d="M 1490.5 150.5 L 1500.5 150.5" fill="none" stroke="#000000" stroke-miterlimit="10" pointer-events="none"/><path d="M 1500.5 150.5 L 1500.5 166.5" fill="none" stroke="#000000" stroke-miterlimit="10" pointer-events="none"/><path d="M 1490.5 166.5 L 1500.5 166.5" fill="none" stroke="#000000" stroke-miterlimit="10" pointer-events="none"/><path d="M 1490.5 150.5 L 1490.5 153.5" fill="none" stroke="#000000" stroke-miterlimit="10" pointer-events="none"/><rect x="1487.5" y="153.5" width="7" height="4" fill="none" stroke="#000000" pointer-events="none"/><path d="M 1490.5 157.5 L 1490.5 159.5" fill="none" stroke="#000000" stroke-miterlimit="10" pointer-events="none"/><rect x="1487.5" y="159.5" width="7" height="4" fill="none" stroke="#000000" pointer-events="none"/><path d="M 1490.5 163.5 L 1490.5 166.5" fill="none" stroke="#000000" stroke-miterlimit="10" pointer-events="none"/><g fill="#000000" font-family="Helvetica" font-weight="bold" text-anchor="middle" font-size="12px"><text x="1397.5" y="162">&lt;&lt;component&gt;&gt;</text><text x="1397.5" y="176">Mongoose</text></g><ellipse cx="1193" cy="168" rx="10" ry="10" fill="#67afcf" stroke="#000000" pointer-events="none"/><ellipse cx="1193" cy="168" rx="10" ry="10" fill="none" stroke="#000000" pointer-events="none"/><g fill="#000000" font-family="Helvetica" font-weight="bold" text-anchor="middle" font-size="12px"><text x="1192.5" y="196">Interface</text></g><path d="M 1203 167.5 L 1309.5 167.5" fill="none" stroke="#000000" stroke-miterlimit="10" pointer-events="none"/><path d="M 1090.5 168 L 1127 168 Q 1137 168 1147 168.06 L 1178.02 168.25" fill="none" stroke="#000000" stroke-miterlimit="10" pointer-events="none"/><path d="M 1193 182.5 C 1184.72 182.5 1178 175.78 1178 167.5 C 1178 159.22 1184.72 152.5 1193 152.5" fill="none" stroke="#000000" stroke-miterlimit="10" pointer-events="none"/><ellipse cx="1408" cy="267" rx="10" ry="10" fill="#67afcf" stroke="#000000" pointer-events="none"/><ellipse cx="1408" cy="267" rx="10" ry="10" fill="none" stroke="#000000" pointer-events="none"/><g fill="#000000" font-family="Helvetica" font-weight="bold" text-anchor="middle" font-size="12px"><text x="1407" y="295.5">Interface</text></g><path d="M 1407.5 277 L 1407.5 345.5" fill="none" stroke="#000000" stroke-miterlimit="10" pointer-events="none"/><path d="M 1407.5 189.5 L 1407.5 252" fill="none" stroke="#000000" stroke-miterlimit="10" pointer-events="none"/><path d="M 1392.5 267 C 1392.5 258.72 1399.22 252 1407.5 252 C 1415.78 252 1422.5 258.72 1422.5 267" fill="none" stroke="#000000" stroke-miterlimit="10" pointer-events="none"/><path d="M 643 81 L 757 80.52" fill="none" stroke="#000000" stroke-miterlimit="10" pointer-events="none"/><path d="M 508 81 L 553 81 Q 563 81 573 81.04 L 612.01 81.19" fill="none" stroke="#000000" stroke-miterlimit="10" pointer-events="none"/><path d="M 630 98.5 C 620.06 98.5 612 90.44 612 80.5 C 612 70.56 620.06 62.5 630 62.5" fill="none" stroke="#000000" stroke-miterlimit="10" pointer-events="none"/><rect x="0" y="390" width="299" height="63" fill="#ffffff" stroke="#000000" pointer-events="none"/><rect x="0" y="390" width="299" height="63" fill="none" stroke="#000000" pointer-events="none"/><path d="M 284 395 L 294 395" fill="none" stroke="#000000" stroke-miterlimit="10" pointer-events="none"/><path d="M 294 395 L 294 411" fill="none" stroke="#000000" stroke-miterlimit="10" pointer-events="none"/><path d="M 284 411 L 294 411" fill="none" stroke="#000000" stroke-miterlimit="10" pointer-events="none"/><path d="M 284 395 L 284 398" fill="none" stroke="#000000" stroke-miterlimit="10" pointer-events="none"/><rect x="281" y="398" width="7" height="4" fill="none" stroke="#000000" pointer-events="none"/><path d="M 284 402 L 284 404" fill="none" stroke="#000000" stroke-miterlimit="10" pointer-events="none"/><rect x="281" y="404" width="7" height="4" fill="none" stroke="#000000" pointer-events="none"/><path d="M 284 408 L 284 411" fill="none" stroke="#000000" stroke-miterlimit="10" pointer-events="none"/><g fill="#000000" font-family="Helvetica" font-weight="bold" text-anchor="middle" font-size="12px"><text x="139.5" y="406.5">&lt;&lt;component&gt;&gt;</text><text x="139.5" y="420.5">OpenLayers</text></g><ellipse cx="149" cy="340" rx="10" ry="10" fill="#ffffff" stroke="#000000" pointer-events="none"/><ellipse cx="149" cy="340" rx="10" ry="10" fill="none" stroke="#000000" pointer-events="none"/><g fill="#000000" font-family="Helvetica" font-weight="bold" text-anchor="middle" font-size="12px"><text x="148.5" y="368.5">OpenLayers API</text></g><path d="M 149 350 L 149 360 Q 149 370 149.5 370 L 149.75 370 Q 150 370 150 380 L 150 390" fill="none" stroke="#000000" stroke-miterlimit="10" pointer-events="none"/><path d="M 149 282 L 149 325" fill="none" stroke="#000000" stroke-miterlimit="10" pointer-events="none"/><path d="M 134 340 C 134 331.72 140.72 325 149 325 C 157.28 325 164 331.72 164 340" fill="none" stroke="#000000" stroke-miterlimit="10" pointer-events="none"/><path d="M 321 81 L 264 81 Q 254 81 254 91 L 254 163" fill="none" stroke="#000000" stroke-miterlimit="10" pointer-events="none"/><path d="M 239 178 C 239 169.72 245.72 163 254 163 C 262.28 163 269 169.72 269 178" fill="none" stroke="#000000" stroke-miterlimit="10" pointer-events="none"/><path d="M 496 81 L 486.5 81 Q 477 81 477 91 L 477 168 Q 477 178 467 178 L 457 178" fill="none" stroke="#000000" stroke-miterlimit="10" pointer-events="none"/><path d="M 508 81 L 553 81 Q 563 81 573 81.04 L 612.01 81.19" fill="none" stroke="#000000" stroke-miterlimit="10" pointer-events="none"/><path d="M 630 98.5 C 620.06 98.5 612 90.44 612 80.5 C 612 70.56 620.06 62.5 630 62.5" fill="none" stroke="#000000" stroke-miterlimit="10" pointer-events="none"/><path d="M 188 178 L 239 178" fill="none" stroke="#000000" stroke-miterlimit="10" pointer-events="none"/><path d="M 254 193 C 245.72 193 239 186.28 239 178 C 239 169.72 245.72 163 254 163" fill="none" stroke="#000000" stroke-miterlimit="10" pointer-events="none"/><path d="M 264 178 L 321 178" fill="none" stroke="#000000" stroke-miterlimit="10" pointer-events="none"/><path d="M 321 81 L 264 81 Q 254 81 254 91 L 254 163" fill="none" stroke="#000000" stroke-miterlimit="10" pointer-events="none"/><path d="M 239 178 C 239 169.72 245.72 163 254 163 C 262.28 163 269 169.72 269 178" fill="none" stroke="#000000" stroke-miterlimit="10" pointer-events="none"/><path d="M 188 178 L 239 178" fill="none" stroke="#000000" stroke-miterlimit="10" pointer-events="none"/><path d="M 254 193 C 245.72 193 239 186.28 239 178 C 239 169.72 245.72 163 254 163" fill="none" stroke="#000000" stroke-miterlimit="10" pointer-events="none"/><path d="M 120 198 L 120 224 Q 120 234 130 234 L 139.5 234 Q 149 234 149 244 L 149 270" fill="none" stroke="#000000" stroke-miterlimit="10" pointer-events="none"/><path d="M 496 81 L 486.5 81 Q 477 81 477 91 L 477 168 Q 477 178 467 178 L 457 178" fill="none" stroke="#000000" stroke-miterlimit="10" pointer-events="none"/><path d="M 264 178 L 321 178" fill="none" stroke="#000000" stroke-miterlimit="10" pointer-events="none"/><path d="M 120 198 L 120 224 Q 120 234 130 234 L 139.5 234 Q 149 234 149 244 L 149 270" fill="none" stroke="#000000" stroke-miterlimit="10" pointer-events="none"/><path d="M 149 282 L 149 325" fill="none" stroke="#000000" stroke-miterlimit="10" pointer-events="none"/><path d="M 134 340 C 134 331.72 140.72 325 149 325 C 157.28 325 164 331.72 164 340" fill="none" stroke="#000000" stroke-miterlimit="10" pointer-events="none"/><path d="M 643 81 L 757 80.52" fill="none" stroke="#000000" stroke-miterlimit="10" pointer-events="none"/><path d="M 508 81 L 553 81 Q 563 81 573 81.04 L 612.01 81.19" fill="none" stroke="#000000" stroke-miterlimit="10" pointer-events="none"/><path d="M 630 98.5 C 620.06 98.5 612 90.44 612 80.5 C 612 70.56 620.06 62.5 630 62.5" fill="none" stroke="#000000" stroke-miterlimit="10" pointer-events="none"/><path d="M 1407.5 277 L 1407.5 345.5" fill="none" stroke="#000000" stroke-miterlimit="10" pointer-events="none"/><path d="M 769 80.5 L 894.5 80.5" fill="none" stroke="#000000" stroke-miterlimit="10" pointer-events="none"/><path d="M 769 81 L 822 81 Q 832 81 832 91 L 832 158 Q 832 168 842 168 L 895 168" fill="none" stroke="#000000" stroke-miterlimit="10" pointer-events="none"/><path d="M 643 81 L 757 80.52" fill="none" stroke="#000000" stroke-miterlimit="10" pointer-events="none"/><path d="M 769 80.5 L 894.5 80.5" fill="none" stroke="#000000" stroke-miterlimit="10" pointer-events="none"/><path d="M 769 81 L 822 81 Q 832 81 832 91 L 832 158 Q 832 168 842 168 L 895 168" fill="none" stroke="#000000" stroke-miterlimit="10" pointer-events="none"/><path d="M 1090.5 168 L 1127 168 Q 1137 168 1147 168.06 L 1178.02 168.25" fill="none" stroke="#000000" stroke-miterlimit="10" pointer-events="none"/><path d="M 1193 182.5 C 1184.72 182.5 1178 175.78 1178 167.5 C 1178 159.22 1184.72 152.5 1193 152.5" fill="none" stroke="#000000" stroke-miterlimit="10" pointer-events="none"/><path d="M 1203 167.5 L 1309.5 167.5" fill="none" stroke="#000000" stroke-miterlimit="10" pointer-events="none"/><path d="M 1407.5 189.5 L 1407.5 252" fill="none" stroke="#000000" stroke-miterlimit="10" pointer-events="none"/><path d="M 1392.5 267 C 1392.5 258.72 1399.22 252 1407.5 252 C 1415.78 252 1422.5 258.72 1422.5 267" fill="none" stroke="#000000" stroke-miterlimit="10" pointer-events="none"/><path d="M 1203 167.5 L 1309.5 167.5" fill="none" stroke="#000000" stroke-miterlimit="10" pointer-events="none"/><path d="M 1090.5 168 L 1127 168 Q 1137 168 1147 168.06 L 1178.02 168.25" fill="none" stroke="#000000" stroke-miterlimit="10" pointer-events="none"/><path d="M 1193 182.5 C 1184.72 182.5 1178 175.78 1178 167.5 C 1178 159.22 1184.72 152.5 1193 152.5" fill="none" stroke="#000000" stroke-miterlimit="10" pointer-events="none"/><path d="M 1407.5 277 L 1407.5 345.5" fill="none" stroke="#000000" stroke-miterlimit="10" pointer-events="none"/><path d="M 1407.5 189.5 L 1407.5 252" fill="none" stroke="#000000" stroke-miterlimit="10" pointer-events="none"/><path d="M 1392.5 267 C 1392.5 258.72 1399.22 252 1407.5 252 C 1415.78 252 1422.5 258.72 1422.5 267" fill="none" stroke="#000000" stroke-miterlimit="10" pointer-events="none"/><path d="M 149 350 L 149 360 Q 149 370 149.5 370 L 149.75 370 Q 150 370 150 380 L 150 390" fill="none" stroke="#000000" stroke-miterlimit="10" pointer-events="none"/><path d="M 149 350 L 149 360 Q 149 370 149.5 370 L 149.75 370 Q 150 370 150 380 L 150 390" fill="none" stroke="#000000" stroke-miterlimit="10" pointer-events="none"/><path d="M 149 282 L 149 325" fill="none" stroke="#000000" stroke-miterlimit="10" pointer-events="none"/><path d="M 134 340 C 134 331.72 140.72 325 149 325 C 157.28 325 164 331.72 164 340" fill="none" stroke="#000000" stroke-miterlimit="10" pointer-events="none"/></g><g fill="#787878" font-family="Arial,Helvetica" font-size="12px"><text x="6" y="15">Visual Paradigm Online Express Edition</text></g><g fill="#787878" font-family="Arial,Helvetica" text-anchor="end" font-size="12px"><text x="1535" y="449">Visual Paradigm Online Express Edition</text></g></svg>