<svg xmlns="http://www.w3.org/2000/svg" xmlns:xlink="http://www.w3.org/1999/xlink" width="928px" height="429px" version="1.1" style="background-color: rgb(255, 255, 255);"><defs><style type="text/css">ul { margin-top: 0px; margin-bottom: 10px } &#xa;ol { margin-top: 0px; margin-bottom: 10px } &#xa;ul { margin-top: 0px; margin-bottom: 10px } &#xa;ol { margin-top: 0px; margin-bottom: 10px } &#xa;ul { margin-top: 0px; margin-bottom: 10px } &#xa;ol { margin-top: 0px; margin-bottom: 10px } &#xa;</style></defs><g transform="translate(0.5,0.5)"><path d="M 720 124 L 915 124 L 915 229 L 720 229 L 720 124 M 730 114 L 925 114 L 915 124 L 720 124 L 730 114 M 925 114 L 925 219 L 915 229 L 915 124" fill="#e1d5e7" stroke="#000000" stroke-miterlimit="10" pointer-events="none"/><path d="M 720 124 L 915 124 L 915 229 L 720 229 L 720 124 M 730 114 L 925 114 L 915 124 L 720 124 L 730 114 M 925 114 L 925 219 L 915 229 L 915 124" fill="none" stroke="#000000" stroke-miterlimit="10" pointer-events="none"/><g fill="#000000" font-family="Helvetica" font-weight="bold" text-anchor="middle" font-size="12px"><text x="817" y="137.5">PC</text></g><rect x="765" y="163" width="115" height="40" fill="#c3abd0" stroke="#000000" pointer-events="none"/><rect x="765" y="163" width="115" height="40" fill="none" stroke="#000000" pointer-events="none"/><path d="M 865 168 L 871 168" fill="none" stroke="#000000" stroke-miterlimit="10" pointer-events="none"/><path d="M 871 168 L 875 172" fill="none" stroke="#000000" stroke-miterlimit="10" pointer-events="none"/><path d="M 875 172 L 875 180" fill="none" stroke="#000000" stroke-miterlimit="10" pointer-events="none"/><path d="M 875 180 L 865 180" fill="none" stroke="#000000" stroke-miterlimit="10" pointer-events="none"/><path d="M 865 180 L 865 168" fill="none" stroke="#000000" stroke-miterlimit="10" pointer-events="none"/><path d="M 871 168 L 871 172" fill="none" stroke="#000000" stroke-miterlimit="10" pointer-events="none"/><path d="M 871 172 L 875 172" fill="none" stroke="#000000" stroke-miterlimit="10" pointer-events="none"/><g fill="#000000" font-family="Helvetica" font-weight="bold" text-anchor="middle" font-size="12px"><text x="812.5" y="179.5">&lt;&lt;artifact&gt;&gt;</text><text x="812.5" y="193.5">GUI</text></g><path d="M 319 10 L 622 10 L 622 426 L 319 426 L 319 10 M 329 0 L 632 0 L 622 10 L 319 10 L 329 0 M 632 0 L 632 416 L 622 426 L 622 10" fill="#d5e8d4" stroke="#000000" stroke-miterlimit="10" pointer-events="none"/><path d="M 319 10 L 622 10 L 622 426 L 319 426 L 319 10 M 329 0 L 632 0 L 622 10 L 319 10 L 329 0 M 632 0 L 632 416 L 622 426 L 622 10" fill="none" stroke="#000000" stroke-miterlimit="10" pointer-events="none"/><g fill="#000000" font-family="Helvetica" font-weight="bold" text-anchor="middle" font-size="12px"><text x="470" y="23.5">&lt;&lt;device&gt;&gt;</text><text x="470" y="37.5">Web Server</text></g><path d="M 359 75 L 548 75 L 548 352 L 359 352 L 359 75 M 369 65 L 558 65 L 548 75 L 359 75 L 369 65 M 558 65 L 558 342 L 548 352 L 548 75" fill="#b9e0a5" stroke="#000000" stroke-miterlimit="10" pointer-events="none"/><path d="M 359 75 L 548 75 L 548 352 L 359 352 L 359 75 M 369 65 L 558 65 L 548 75 L 359 75 L 369 65 M 558 65 L 558 342 L 548 352 L 548 75" fill="none" stroke="#000000" stroke-miterlimit="10" pointer-events="none"/><g fill="#000000" font-family="Helvetica" font-weight="bold" text-anchor="middle" font-size="12px"><text x="453" y="88.5">&lt;&lt;executionEnvironment&gt;&gt;</text><text x="453" y="102.5">Application Server</text></g><rect x="390.5" y="129.5" width="136" height="40" fill="#97d077" stroke="#000000" pointer-events="none"/><rect x="390.5" y="129.5" width="136" height="40" fill="none" stroke="#000000" pointer-events="none"/><path d="M 511.5 134.5 L 521.5 134.5" fill="none" stroke="#000000" stroke-miterlimit="10" pointer-events="none"/><path d="M 521.5 134.5 L 521.5 150.5" fill="none" stroke="#000000" stroke-miterlimit="10" pointer-events="none"/><path d="M 511.5 150.5 L 521.5 150.5" fill="none" stroke="#000000" stroke-miterlimit="10" pointer-events="none"/><path d="M 511.5 134.5 L 511.5 137.5" fill="none" stroke="#000000" stroke-miterlimit="10" pointer-events="none"/><rect x="508.5" y="137.5" width="7" height="4" fill="none" stroke="#000000" pointer-events="none"/><path d="M 511.5 141.5 L 511.5 143.5" fill="none" stroke="#000000" stroke-miterlimit="10" pointer-events="none"/><rect x="508.5" y="143.5" width="7" height="4" fill="none" stroke="#000000" pointer-events="none"/><path d="M 511.5 147.5 L 511.5 150.5" fill="none" stroke="#000000" stroke-miterlimit="10" pointer-events="none"/><g fill="#000000" font-family="Helvetica" font-weight="bold" text-anchor="middle" font-size="12px"><text x="448.5" y="146">&lt;&lt;component&gt;&gt;</text><text x="448.5" y="160">REST API</text></g><rect x="390.5" y="277.5" width="136" height="40" fill="#97d077" stroke="#000000" pointer-events="none"/><rect x="390.5" y="277.5" width="136" height="40" fill="none" stroke="#000000" pointer-events="none"/><path d="M 511.5 282.5 L 521.5 282.5" fill="none" stroke="#000000" stroke-miterlimit="10" pointer-events="none"/><path d="M 521.5 282.5 L 521.5 298.5" fill="none" stroke="#000000" stroke-miterlimit="10" pointer-events="none"/><path d="M 511.5 298.5 L 521.5 298.5" fill="none" stroke="#000000" stroke-miterlimit="10" pointer-events="none"/><path d="M 511.5 282.5 L 511.5 285.5" fill="none" stroke="#000000" stroke-miterlimit="10" pointer-events="none"/><rect x="508.5" y="285.5" width="7" height="4" fill="none" stroke="#000000" pointer-events="none"/><path d="M 511.5 289.5 L 511.5 291.5" fill="none" stroke="#000000" stroke-miterlimit="10" pointer-events="none"/><rect x="508.5" y="291.5" width="7" height="4" fill="none" stroke="#000000" pointer-events="none"/><path d="M 511.5 295.5 L 511.5 298.5" fill="none" stroke="#000000" stroke-miterlimit="10" pointer-events="none"/><g fill="#000000" font-family="Helvetica" font-weight="bold" text-anchor="middle" font-size="12px"><text x="448.5" y="294">&lt;&lt;component&gt;&gt;</text><text x="448.5" y="308">Client App</text></g><path d="M 458.5 277.5 L 458.5 171.74" fill="none" stroke="#000000" stroke-miterlimit="10" stroke-dasharray="5" pointer-events="none"/><path d="M 464.5 182.62 L 458.5 170.62 L 452.5 182.62" fill="none" stroke="#000000" stroke-miterlimit="10" pointer-events="none"/><g fill="#000000" font-family="Helvetica" text-anchor="middle" font-size="11px"><text x="458" y="226.5">&lt;&lt;use&gt;&gt;</text></g><ellipse cx="589" cy="298" rx="10" ry="10" fill="#b9e0a5" stroke="#000000" pointer-events="none"/><ellipse cx="589" cy="298" rx="10" ry="10" fill="none" stroke="#000000" pointer-events="none"/><g fill="#000000" font-family="Helvetica" font-weight="bold" text-anchor="middle" font-size="12px"><text x="588.5" y="326">Session</text></g><path d="M 579 298 L 563 298 Q 553 298 543 298 L 527 298" fill="none" stroke="#000000" stroke-miterlimit="10" pointer-events="none"/><rect x="0" y="16" width="226" height="41" fill="#fff2cc" stroke="#000000" pointer-events="none"/><path d="M 0 50 L 226 50" fill="none" stroke="#000000" stroke-miterlimit="10" pointer-events="none"/><g fill="#000000" font-family="Helvetica" font-weight="bold" text-anchor="middle" font-size="12px"><text x="112.5" y="30.5">&lt;&lt;deployment spec&gt;&gt;</text><text x="112.5" y="44.5">Web Deployment Specification</text></g><rect x="41.5" y="131.5" width="143" height="40" fill="#cda2be" stroke="#000000" pointer-events="none"/><rect x="41.5" y="131.5" width="143" height="40" fill="none" stroke="#000000" pointer-events="none"/><path d="M 169.5 136.5 L 175.5 136.5" fill="none" stroke="#000000" stroke-miterlimit="10" pointer-events="none"/><path d="M 175.5 136.5 L 179.5 140.5" fill="none" stroke="#000000" stroke-miterlimit="10" pointer-events="none"/><path d="M 179.5 140.5 L 179.5 148.5" fill="none" stroke="#000000" stroke-miterlimit="10" pointer-events="none"/><path d="M 179.5 148.5 L 169.5 148.5" fill="none" stroke="#000000" stroke-miterlimit="10" pointer-events="none"/><path d="M 169.5 148.5 L 169.5 136.5" fill="none" stroke="#000000" stroke-miterlimit="10" pointer-events="none"/><path d="M 175.5 136.5 L 175.5 140.5" fill="none" stroke="#000000" stroke-miterlimit="10" pointer-events="none"/><path d="M 175.5 140.5 L 179.5 140.5" fill="none" stroke="#000000" stroke-miterlimit="10" pointer-events="none"/><g fill="#000000" font-family="Helvetica" font-weight="bold" text-anchor="middle" font-size="12px"><text x="103" y="148">&lt;&lt;artifact&gt;&gt;</text><text x="103" y="162">Web Application</text></g><path d="M 113 57 L 113 129.26" fill="none" stroke="#000000" stroke-miterlimit="10" stroke-dasharray="5" pointer-events="none"/><path d="M 107 118.38 L 113 130.38 L 119 118.38" fill="none" stroke="#000000" stroke-miterlimit="10" pointer-events="none"/><path d="M 316.76 213 L 262 213 Q 252 213 252 203 L 252 162 Q 252 152 242 152 L 184.5 152" fill="none" stroke="#000000" stroke-miterlimit="10" stroke-dasharray="5" pointer-events="none"/><path d="M 305.88 219 L 317.88 213 L 305.88 207" fill="none" stroke="#000000" stroke-miterlimit="10" pointer-events="none"/><g fill="#000000" font-family="Helvetica" text-anchor="middle" font-size="11px"><text x="241.5" y="185">&lt;&lt;deploy&gt;&gt;</text></g><path d="M 589 287.5 L 589 264 Q 589 254 599 254 L 813 254 Q 823 254 823 244 L 823 205.24" fill="none" stroke="#000000" stroke-miterlimit="10" stroke-dasharray="5" pointer-events="none"/><path d="M 829 216.12 L 823 204.12 L 817 216.12" fill="none" stroke="#000000" stroke-miterlimit="10" pointer-events="none"/><path d="M 589 287.5 L 589 264 Q 589 254 599 254 L 813 254 Q 823 254 823 244 L 823 205.24" fill="none" stroke="#000000" stroke-miterlimit="10" stroke-dasharray="5" pointer-events="none"/><path d="M 829 216.12 L 823 204.12 L 817 216.12" fill="none" stroke="#000000" stroke-miterlimit="10" pointer-events="none"/><path d="M 316.76 213 L 262 213 Q 252 213 252 203 L 252 162 Q 252 152 242 152 L 184.5 152" fill="none" stroke="#000000" stroke-miterlimit="10" stroke-dasharray="5" pointer-events="none"/><path d="M 305.88 219 L 317.88 213 L 305.88 207" fill="none" stroke="#000000" stroke-miterlimit="10" pointer-events="none"/><g fill="#000000" font-family="Helvetica" text-anchor="middle" font-size="11px"><text x="241.5" y="185">&lt;&lt;deploy&gt;&gt;</text></g><path d="M 458.5 277.5 L 458.5 171.74" fill="none" stroke="#000000" stroke-miterlimit="10" stroke-dasharray="5" pointer-events="none"/><path d="M 464.5 182.62 L 458.5 170.62 L 452.5 182.62" fill="none" stroke="#000000" stroke-miterlimit="10" pointer-events="none"/><g fill="#000000" font-family="Helvetica" text-anchor="middle" font-size="11px"><text x="458" y="226.5">&lt;&lt;use&gt;&gt;</text></g><path d="M 458.5 277.5 L 458.5 171.74" fill="none" stroke="#000000" stroke-miterlimit="10" stroke-dasharray="5" pointer-events="none"/><path d="M 464.5 182.62 L 458.5 170.62 L 452.5 182.62" fill="none" stroke="#000000" stroke-miterlimit="10" pointer-events="none"/><g fill="#000000" font-family="Helvetica" text-anchor="middle" font-size="11px"><text x="458" y="226.5">&lt;&lt;use&gt;&gt;</text></g><path d="M 579 298 L 563 298 Q 553 298 543 298 L 527 298" fill="none" stroke="#000000" stroke-miterlimit="10" pointer-events="none"/><path d="M 579 298 L 563 298 Q 553 298 543 298 L 527 298" fill="none" stroke="#000000" stroke-miterlimit="10" pointer-events="none"/><path d="M 589 287.5 L 589 264 Q 589 254 599 254 L 813 254 Q 823 254 823 244 L 823 205.24" fill="none" stroke="#000000" stroke-miterlimit="10" stroke-dasharray="5" pointer-events="none"/><path d="M 829 216.12 L 823 204.12 L 817 216.12" fill="none" stroke="#000000" stroke-miterlimit="10" pointer-events="none"/><path d="M 113 57 L 113 129.26" fill="none" stroke="#000000" stroke-miterlimit="10" stroke-dasharray="5" pointer-events="none"/><path d="M 107 118.38 L 113 130.38 L 119 118.38" fill="none" stroke="#000000" stroke-miterlimit="10" pointer-events="none"/><path d="M 113 57 L 113 129.26" fill="none" stroke="#000000" stroke-miterlimit="10" stroke-dasharray="5" pointer-events="none"/><path d="M 107 118.38 L 113 130.38 L 119 118.38" fill="none" stroke="#000000" stroke-miterlimit="10" pointer-events="none"/><path d="M 316.76 213 L 262 213 Q 252 213 252 203 L 252 162 Q 252 152 242 152 L 184.5 152" fill="none" stroke="#000000" stroke-miterlimit="10" stroke-dasharray="5" pointer-events="none"/><path d="M 305.88 219 L 317.88 213 L 305.88 207" fill="none" stroke="#000000" stroke-miterlimit="10" pointer-events="none"/><g fill="#000000" font-family="Helvetica" text-anchor="middle" font-size="11px"><text x="241.5" y="185">&lt;&lt;deploy&gt;&gt;</text></g></g><g fill="#787878" font-family="Arial,Helvetica" font-size="12px"><text x="6" y="15">Visual Paradigm Online Express Edition</text></g><g fill="#787878" font-family="Arial,Helvetica" text-anchor="end" font-size="12px"><text x="922" y="422">Visual Paradigm Online Express Edition</text></g></svg>