<svg xmlns="http://www.w3.org/2000/svg" xmlns:xlink="http://www.w3.org/1999/xlink" width="1723px" height="1289px" version="1.1" style="background-color: rgb(255, 255, 255);"><defs><style type="text/css">ul { margin-top: 0px; margin-bottom: 10px } &#xa;ol { margin-top: 0px; margin-bottom: 10px } &#xa;ul { margin-top: 0px; margin-bottom: 10px } &#xa;ol { margin-top: 0px; margin-bottom: 10px } &#xa;ul { margin-top: 0px; margin-bottom: 10px } &#xa;ol { margin-top: 0px; margin-bottom: 10px } &#xa;</style></defs><g transform="translate(0.5,0.5)"><ellipse cx="346" cy="1216" rx="64.5" ry="16" fill="#7acff5" stroke="#000000" pointer-events="none"/><g fill="#000000" font-family="Helvetica" text-anchor="middle" font-size="12px"><text x="345" y="1219">Display Login Error</text></g><ellipse cx="1422" cy="697" rx="40" ry="20" fill="#7acff5" stroke="#000000" pointer-events="none"/><g fill="#000000" font-family="Helvetica" text-anchor="middle" font-size="12px"><text x="1421" y="700">Search</text></g><ellipse cx="1100" cy="633" rx="56" ry="26.5" fill="#7acff5" stroke="#000000" pointer-events="none"/><g fill="#000000" font-family="Helvetica" text-anchor="middle" font-size="12px"><text x="1099" y="636.5">Query Database</text></g><path d="M 1382 697 L 1158.15 633.61" fill="none" stroke="#000000" stroke-miterlimit="10" stroke-dasharray="4" pointer-events="none"/><path d="M 1170.26 630.8 L 1157.08 633.3 L 1166.99 642.35" fill="none" stroke="#000000" stroke-miterlimit="10" pointer-events="none"/><g fill="#000000" font-family="Helvetica" text-anchor="middle" font-size="11px"><text x="1268.93" y="668.12">&lt;&lt;Include&gt;&gt;</text></g><ellipse cx="1024" cy="697" rx="40" ry="20" fill="#7acff5" stroke="#000000" pointer-events="none"/><g fill="#000000" font-family="Helvetica" text-anchor="middle" font-size="12px"><text x="1023" y="700">Use Filter</text></g><path d="M 1379.26 696.5 L 1063.5 696.5" fill="none" stroke="#000000" stroke-miterlimit="10" stroke-dasharray="4" pointer-events="none"/><path d="M 1368.38 702.5 L 1380.38 696.5 L 1368.38 690.5" fill="none" stroke="#000000" stroke-miterlimit="10" pointer-events="none"/><g fill="#000000" font-family="Helvetica" text-anchor="middle" font-size="11px"><text x="1222" y="699.5">&lt;&lt;Extend&gt;&gt;</text></g><ellipse cx="1635" cy="838" rx="55.5" ry="27.5" fill="#7acff5" stroke="#000000" pointer-events="none"/><g fill="#000000" font-family="Helvetica" text-anchor="middle" font-size="12px"><text x="1634" y="841.5">Search Product</text></g><path d="M 1462.53 723.76 L 1593.1 810.5" fill="none" stroke="#000000" stroke-miterlimit="10" pointer-events="none"/><path d="M 1452.54 717.12 L 1465.85 718.76 L 1459.21 728.76 Z" fill="none" stroke="#000000" stroke-miterlimit="10" pointer-events="none"/><ellipse cx="1447" cy="866" rx="53" ry="28" fill="#7acff5" stroke="#000000" pointer-events="none"/><g fill="#000000" font-family="Helvetica" text-anchor="middle" font-size="12px"><text x="1446" y="869">Search Shop</text></g><path d="M 1424.65 729.85 L 1447 838" fill="none" stroke="#000000" stroke-miterlimit="10" pointer-events="none"/><path d="M 1422.23 718.09 L 1430.53 728.63 L 1418.78 731.06 Z" fill="none" stroke="#000000" stroke-miterlimit="10" pointer-events="none"/><ellipse cx="1130" cy="815" rx="54.5" ry="22.5" fill="#7acff5" stroke="#000000" pointer-events="none"/><g fill="#000000" font-family="Helvetica" text-anchor="middle" font-size="12px"><text x="1129" y="818.5">Report Abuse</text></g><ellipse cx="404" cy="394" rx="60" ry="24" fill="#7acff5" stroke="#000000" pointer-events="none"/><g fill="#000000" font-family="Helvetica" text-anchor="middle" font-size="12px"><text x="403" y="397.5">Register Shop</text></g><ellipse cx="1605" cy="717" rx="105.5" ry="20" fill="#7acff5" stroke="#000000" pointer-events="none"/><g fill="#000000" font-family="Helvetica" text-anchor="middle" font-size="12px"><text x="1604.5" y="720">View Product price developement</text></g><path d="M 1627.3 808.33 L 1609.86 736.5" fill="none" stroke="#000000" stroke-miterlimit="10" stroke-dasharray="4" pointer-events="none"/><path d="M 1618.9 799.17 L 1627.56 809.41 L 1630.56 796.34" fill="none" stroke="#000000" stroke-miterlimit="10" pointer-events="none"/><g fill="#000000" font-family="Helvetica" text-anchor="middle" font-size="11px"><text x="1618.36" y="776.57">&lt;&lt;Extend&gt;&gt;</text></g><path d="M 1501.71 857.42 L 1579 846.12" fill="none" stroke="#000000" stroke-miterlimit="10" stroke-dasharray="4" pointer-events="none"/><path d="M 1511.61 849.91 L 1500.61 857.59 L 1513.35 861.79" fill="none" stroke="#000000" stroke-miterlimit="10" pointer-events="none"/><g fill="#000000" font-family="Helvetica" text-anchor="middle" font-size="11px"><text x="1538.58" y="854.96">&lt;&lt;Extend&gt;&gt;</text></g><ellipse cx="306" cy="1034" rx="40" ry="20" fill="#7acff5" stroke="#000000" pointer-events="none"/><g fill="#000000" font-family="Helvetica" text-anchor="middle" font-size="12px"><text x="305" y="1037.5">Sign Up</text></g><ellipse cx="480" cy="1088" rx="40" ry="20" fill="#7acff5" stroke="#000000" pointer-events="none"/><g fill="#000000" font-family="Helvetica" text-anchor="middle" font-size="12px"><text x="479.5" y="1091.5">Log In</text></g><path d="M 477.83 1067.45 L 346 1034" fill="none" stroke="#000000" stroke-miterlimit="10" stroke-dasharray="4" pointer-events="none"/><path d="M 465.81 1070.59 L 478.92 1067.73 L 468.76 1058.96" fill="none" stroke="#000000" stroke-miterlimit="10" pointer-events="none"/><g fill="#000000" font-family="Helvetica" text-anchor="middle" font-size="11px"><text x="412.62" y="1054.03">&lt;&lt;Extend&gt;&gt;</text></g><ellipse cx="540" cy="1217" rx="50" ry="23" fill="#7acff5" stroke="#000000" pointer-events="none"/><g fill="#000000" font-family="Helvetica" text-anchor="middle" font-size="12px"><text x="539.5" y="1220">Verify Password</text></g><path d="M 489.34 1108 L 528.31 1191.47" fill="none" stroke="#000000" stroke-miterlimit="10" stroke-dasharray="4" pointer-events="none"/><path d="M 518.27 1184.15 L 528.79 1192.49 L 529.15 1179.08" fill="none" stroke="#000000" stroke-miterlimit="10" pointer-events="none"/><g fill="#000000" font-family="Helvetica" text-anchor="middle" font-size="11px"><text x="508.72" y="1153.59">&lt;&lt;Include&gt;&gt;</text></g><path d="M 454.36 1109.43 L 346 1200" fill="none" stroke="#000000" stroke-miterlimit="10" stroke-dasharray="4" pointer-events="none"/><path d="M 449.85 1121.02 L 455.21 1108.72 L 442.16 1111.81" fill="none" stroke="#000000" stroke-miterlimit="10" pointer-events="none"/><g fill="#000000" font-family="Helvetica" text-anchor="middle" font-size="11px"><text x="400.33" y="1157.17">&lt;&lt;Extend&gt;&gt;</text></g><path d="M 647.56 803.83 L 359 707" fill="none" stroke="#000000" stroke-miterlimit="10" pointer-events="none"/><path d="M 658.94 807.64 L 645.65 809.52 L 649.47 798.14 Z" fill="none" stroke="#000000" stroke-miterlimit="10" pointer-events="none"/><path d="M 675 838 L 1382 697" fill="none" stroke="#000000" stroke-miterlimit="10" pointer-events="none"/><ellipse cx="252" cy="330" rx="59.5" ry="22" fill="#7acff5" stroke="#000000" pointer-events="none"/><g fill="#000000" font-family="Helvetica" text-anchor="middle" font-size="12px"><text x="251" y="333.5">Register Product</text></g><path d="M 252 352 L 344 692" fill="none" stroke="#000000" stroke-miterlimit="10" pointer-events="none"/><path d="M 254.15 352.6 L 343.5 377.37" fill="none" stroke="#000000" stroke-miterlimit="10" stroke-dasharray="4" pointer-events="none"/><path d="M 266.24 349.72 L 253.08 352.3 L 263.04 361.29" fill="none" stroke="#000000" stroke-miterlimit="10" pointer-events="none"/><g fill="#000000" font-family="Helvetica" text-anchor="middle" font-size="11px"><text x="296.79" y="367.56">&lt;&lt;Extend&gt;&gt;</text></g><path d="M 344 662 L 344 394" fill="none" stroke="#000000" stroke-miterlimit="10" pointer-events="none"/><ellipse cx="568" cy="513" rx="40" ry="20" fill="#7acff5" stroke="#000000" pointer-events="none"/><g fill="#000000" font-family="Helvetica" text-anchor="middle" font-size="12px"><text x="567" y="516.5">Add to Cart</text></g><path d="M 528 513 L 374 662" fill="none" stroke="#000000" stroke-miterlimit="10" pointer-events="none"/><ellipse cx="540" cy="454" rx="68" ry="21.5" fill="#7acff5" stroke="#000000" pointer-events="none"/><g fill="#000000" font-family="Helvetica" text-anchor="middle" font-size="12px"><text x="539.5" y="457">Remove from Cart</text></g><path d="M 472 454 L 366 647" fill="none" stroke="#000000" stroke-miterlimit="10" pointer-events="none"/><ellipse cx="120" cy="586" rx="120" ry="20.5" fill="#7acff5" stroke="#000000" pointer-events="none"/><g fill="#000000" font-family="Helvetica" text-anchor="middle" font-size="12px"><text x="119.5" y="589.5">Calculate optimal shop combination</text></g><path d="M 240 607 L 344 692" fill="none" stroke="#000000" stroke-miterlimit="10" pointer-events="none"/><path d="M 675 844.49 L 1075 818.54" fill="none" stroke="#000000" stroke-miterlimit="10" pointer-events="none"/><ellipse cx="663" cy="816" rx="7.5" ry="7.5" fill="#7acff5" stroke="none" pointer-events="none"/><rect x="648" y="808" width="30" height="60" fill-opacity="0" fill="#7acff5" stroke="none" pointer-events="none"/><ellipse cx="663" cy="816" rx="7.5" ry="7.5" fill="none" stroke="#000000" pointer-events="none"/><path d="M 663 823 L 663 848" fill="none" stroke="#000000" stroke-miterlimit="10" pointer-events="none"/><path d="M 648 832 L 678 832" fill="none" stroke="#000000" stroke-miterlimit="10" pointer-events="none"/><path d="M 663 848 L 648 868" fill="none" stroke="#000000" stroke-miterlimit="10" pointer-events="none"/><path d="M 663 848 L 678 868" fill="none" stroke="#000000" stroke-miterlimit="10" pointer-events="none"/><g fill="#000000" font-family="Helvetica" text-anchor="middle" font-size="12px"><text x="662.5" y="886.5">Guest</text></g><ellipse cx="359" cy="654" rx="7.5" ry="7.5" fill="#7acff5" stroke="none" pointer-events="none"/><rect x="343.5" y="646.5" width="30" height="60" fill-opacity="0" fill="#7acff5" stroke="none" pointer-events="none"/><ellipse cx="359" cy="654" rx="7.5" ry="7.5" fill="none" stroke="#000000" pointer-events="none"/><path d="M 358.5 661.5 L 358.5 686.5" fill="none" stroke="#000000" stroke-miterlimit="10" pointer-events="none"/><path d="M 343.5 670.5 L 373.5 670.5" fill="none" stroke="#000000" stroke-miterlimit="10" pointer-events="none"/><path d="M 358.5 686.5 L 343.5 706.5" fill="none" stroke="#000000" stroke-miterlimit="10" pointer-events="none"/><path d="M 358.5 686.5 L 373.5 706.5" fill="none" stroke="#000000" stroke-miterlimit="10" pointer-events="none"/><g fill="#000000" font-family="Helvetica" text-anchor="middle" font-size="12px"><text x="358" y="725">Logged-in user</text></g><ellipse cx="1308" cy="1108" rx="53" ry="24" fill="#7acff5" stroke="#000000" pointer-events="none"/><g fill="#000000" font-family="Helvetica" text-anchor="middle" font-size="12px"><text x="1307.5" y="1111.5">View Statistics</text></g><path d="M 1599.52 866.92 L 1337.02 1084" fill="none" stroke="#000000" stroke-miterlimit="10" stroke-dasharray="4" pointer-events="none"/><path d="M 1594.96 878.48 L 1600.38 866.21 L 1587.31 869.24" fill="none" stroke="#000000" stroke-miterlimit="10" pointer-events="none"/><g fill="#000000" font-family="Helvetica" text-anchor="middle" font-size="11px"><text x="1468.97" y="977.47">&lt;&lt;Extend&gt;&gt;</text></g><path d="M 1445.78 895.88 L 1323.59 1084" fill="none" stroke="#000000" stroke-miterlimit="10" stroke-dasharray="4" pointer-events="none"/><path d="M 1444.89 908.27 L 1446.39 894.94 L 1434.82 901.73" fill="none" stroke="#000000" stroke-miterlimit="10" pointer-events="none"/><g fill="#000000" font-family="Helvetica" text-anchor="middle" font-size="11px"><text x="1384.95" y="991.76">&lt;&lt;Extend&gt;&gt;</text></g><ellipse cx="1424" cy="1200" rx="54.5" ry="22.5" fill="#7acff5" stroke="#000000" pointer-events="none"/><g fill="#000000" font-family="Helvetica" text-anchor="middle" font-size="12px"><text x="1423.5" y="1203">Download Data</text></g><path d="M 1340.18 1133.38 L 1395.48 1177" fill="none" stroke="#000000" stroke-miterlimit="10" stroke-dasharray="4" pointer-events="none"/><path d="M 1352.44 1135.41 L 1339.3 1132.69 L 1345.01 1144.84" fill="none" stroke="#000000" stroke-miterlimit="10" pointer-events="none"/><g fill="#000000" font-family="Helvetica" text-anchor="middle" font-size="11px"><text x="1366.19" y="1157.3">&lt;&lt;Extend&gt;&gt;</text></g><ellipse cx="1245" cy="1263" rx="101.5" ry="23" fill="#7acff5" stroke="#000000" pointer-events="none"/><g fill="#000000" font-family="Helvetica" text-anchor="middle" font-size="12px"><text x="1244.5" y="1266">Subscribe to Informative Mail-list</text></g><ellipse cx="1171" cy="891" rx="7.5" ry="7.5" fill="#7acff5" stroke="none" pointer-events="none"/><rect x="1155.5" y="883" width="30" height="60" fill-opacity="0" fill="#7acff5" stroke="none" pointer-events="none"/><ellipse cx="1171" cy="891" rx="7.5" ry="7.5" fill="none" stroke="#000000" pointer-events="none"/><path d="M 1170.5 898 L 1170.5 923" fill="none" stroke="#000000" stroke-miterlimit="10" pointer-events="none"/><path d="M 1155.5 907 L 1185.5 907" fill="none" stroke="#000000" stroke-miterlimit="10" pointer-events="none"/><path d="M 1170.5 923 L 1155.5 943" fill="none" stroke="#000000" stroke-miterlimit="10" pointer-events="none"/><path d="M 1170.5 923 L 1185.5 943" fill="none" stroke="#000000" stroke-miterlimit="10" pointer-events="none"/><g fill="#000000" font-family="Helvetica" text-anchor="middle" font-size="12px"><text x="1170" y="961.5">Investor</text></g><path d="M 1185.5 934.27 L 1291.08 1084" fill="none" stroke="#000000" stroke-miterlimit="10" pointer-events="none"/><path d="M 1176.89 943 L 1240.1 1239.5" fill="none" stroke="#000000" stroke-miterlimit="10" pointer-events="none"/><path d="M 1379.56 729.89 L 1312.54 1084" fill="none" stroke="#000000" stroke-miterlimit="10" pointer-events="none"/><path d="M 1381.79 718.1 L 1385.46 731 L 1373.67 728.77 Z" fill="none" stroke="#000000" stroke-miterlimit="10" pointer-events="none"/><path d="M 691.02 854.59 L 1155.5 911.17" fill="none" stroke="#000000" stroke-miterlimit="10" pointer-events="none"/><path d="M 679.11 853.14 L 691.75 848.63 L 690.3 860.54 Z" fill="none" stroke="#000000" stroke-miterlimit="10" pointer-events="none"/><ellipse cx="1169" cy="24" rx="84" ry="23.5" fill="#7acff5" stroke="#000000" pointer-events="none"/><g fill="#000000" font-family="Helvetica" text-anchor="middle" font-size="12px"><text x="1168" y="27">Respond to Abuse Report</text></g><ellipse cx="1410" cy="231" rx="40" ry="20" fill="#7acff5" stroke="#000000" pointer-events="none"/><g fill="#000000" font-family="Helvetica" text-anchor="middle" font-size="12px"><text x="1409" y="234.5">Delete</text></g><ellipse cx="1205" cy="227" rx="40" ry="20" fill="#7acff5" stroke="#000000" pointer-events="none"/><g fill="#000000" font-family="Helvetica" text-anchor="middle" font-size="12px"><text x="1204.5" y="230">Edit</text></g><ellipse cx="964" cy="348" rx="40" ry="20" fill="#7acff5" stroke="#000000" pointer-events="none"/><g fill="#000000" font-family="Helvetica" text-anchor="middle" font-size="12px"><text x="963" y="351.5">View Logs</text></g><ellipse cx="1022" cy="207" rx="92.5" ry="21.5" fill="#7acff5" stroke="#000000" pointer-events="none"/><g fill="#000000" font-family="Helvetica" text-anchor="middle" font-size="12px"><text x="1021.5" y="210">Check for Abuse Reports</text></g><path d="M 1040.61 183.25 L 1149.69 47" fill="none" stroke="#000000" stroke-miterlimit="10" stroke-dasharray="4" pointer-events="none"/><path d="M 1042.73 171.01 L 1039.91 184.13 L 1052.09 178.51" fill="none" stroke="#000000" stroke-miterlimit="10" pointer-events="none"/><g fill="#000000" font-family="Helvetica" text-anchor="middle" font-size="11px"><text x="1093.71" y="119.3">&lt;&lt;Extend&gt;&gt;</text></g><ellipse cx="1370" cy="352" rx="98.5" ry="21.5" fill="#7acff5" stroke="#000000" pointer-events="none"/><g fill="#000000" font-family="Helvetica" text-anchor="middle" font-size="12px"><text x="1369" y="355.5">Manage Product / Shop / User</text></g><path d="M 1264.89 340.39 L 1215.52 246.5" fill="none" stroke="#000000" stroke-miterlimit="10" pointer-events="none"/><path d="M 1270.48 351.01 L 1259.58 343.18 L 1270.2 337.6 Z" fill="none" stroke="#000000" stroke-miterlimit="10" pointer-events="none"/><path d="M 1380.72 318.04 L 1402.89 251" fill="none" stroke="#000000" stroke-miterlimit="10" pointer-events="none"/><path d="M 1376.96 329.44 L 1375.03 316.16 L 1386.42 319.93 Z" fill="none" stroke="#000000" stroke-miterlimit="10" pointer-events="none"/><path d="M 1185.12 48.87 L 1370 331" fill="none" stroke="#000000" stroke-miterlimit="10" stroke-dasharray="4" pointer-events="none"/><path d="M 1196.11 54.68 L 1184.51 47.94 L 1186.07 61.26" fill="none" stroke="#000000" stroke-miterlimit="10" pointer-events="none"/><g fill="#000000" font-family="Helvetica" text-anchor="middle" font-size="11px"><text x="1276.57" y="192.19">&lt;&lt;Extend&gt;&gt;</text></g><path d="M 1421.64 674.79 L 1372.97 373.5" fill="none" stroke="#000000" stroke-miterlimit="10" stroke-dasharray="4" pointer-events="none"/><path d="M 1413.98 665.01 L 1421.82 675.9 L 1425.83 663.09" fill="none" stroke="#000000" stroke-miterlimit="10" pointer-events="none"/><g fill="#000000" font-family="Helvetica" text-anchor="middle" font-size="11px"><text x="1396.94" y="527.97">&lt;&lt;Extend&gt;&gt;</text></g><ellipse cx="1100" cy="440" rx="7.5" ry="7.5" fill="#7acff5" stroke="none" pointer-events="none"/><rect x="1084.5" y="432" width="30" height="60" fill-opacity="0" fill="#7acff5" stroke="none" pointer-events="none"/><ellipse cx="1100" cy="440" rx="7.5" ry="7.5" fill="none" stroke="#000000" pointer-events="none"/><path d="M 1099.5 447 L 1099.5 472" fill="none" stroke="#000000" stroke-miterlimit="10" pointer-events="none"/><path d="M 1084.5 456 L 1114.5 456" fill="none" stroke="#000000" stroke-miterlimit="10" pointer-events="none"/><path d="M 1099.5 472 L 1084.5 492" fill="none" stroke="#000000" stroke-miterlimit="10" pointer-events="none"/><path d="M 1099.5 472 L 1114.5 492" fill="none" stroke="#000000" stroke-miterlimit="10" pointer-events="none"/><g fill="#000000" font-family="Helvetica" text-anchor="middle" font-size="12px"><text x="1099" y="510.5">Admin</text></g><ellipse cx="1528" cy="271" rx="40" ry="20" fill="#7acff5" stroke="#000000" pointer-events="none"/><g fill="#000000" font-family="Helvetica" text-anchor="middle" font-size="12px"><text x="1527" y="274.5">Create</text></g><path d="M 1423.11 324.52 L 1488.49 291" fill="none" stroke="#000000" stroke-miterlimit="10" pointer-events="none"/><path d="M 1412.43 329.99 L 1420.37 319.18 L 1425.85 329.85 Z" fill="none" stroke="#000000" stroke-miterlimit="10" pointer-events="none"/><path d="M 1114.5 455.89 L 1316.73 373.5" fill="none" stroke="#000000" stroke-miterlimit="10" pointer-events="none"/><ellipse cx="1658" cy="295" rx="62" ry="24" fill="#7acff5" stroke="#000000" pointer-events="none"/><g fill="#000000" font-family="Helvetica" text-anchor="middle" font-size="12px"><text x="1657" y="298.5">Update Database</text></g><path d="M 1468 332.51 L 1593.31 307.7" fill="none" stroke="#000000" stroke-miterlimit="10" stroke-dasharray="4" pointer-events="none"/><path d="M 1583.8 315.7 L 1594.4 307.49 L 1581.47 303.93" fill="none" stroke="#000000" stroke-miterlimit="10" pointer-events="none"/><g fill="#000000" font-family="Helvetica" text-anchor="middle" font-size="11px"><text x="1531.26" y="322.89">&lt;&lt;Include&gt;&gt;</text></g><path d="M 1084.5 449.43 L 987.36 368" fill="none" stroke="#000000" stroke-miterlimit="10" pointer-events="none"/><path d="M 1090.4 432 L 1028.52 228" fill="none" stroke="#000000" stroke-miterlimit="10" pointer-events="none"/><ellipse cx="703" cy="566" rx="40" ry="20" fill="#7acff5" stroke="#000000" pointer-events="none"/><g fill="#000000" font-family="Helvetica" text-anchor="middle" font-size="12px"><text x="702.5" y="569.5">Log out</text></g><path d="M 374 677 L 663 566" fill="none" stroke="#000000" stroke-miterlimit="10" pointer-events="none"/><path d="M 520 1068 L 656 868" fill="none" stroke="#000000" stroke-miterlimit="10" pointer-events="none"/><path d="M 346 1014 L 648 853" fill="none" stroke="#000000" stroke-miterlimit="10" pointer-events="none"/><path d="M 681.49 800.13 L 1092 492" fill="none" stroke="#000000" stroke-miterlimit="10" pointer-events="none"/><path d="M 671.89 807.33 L 677.89 795.33 L 685.09 804.92 Z" fill="none" stroke="#000000" stroke-miterlimit="10" pointer-events="none"/><path d="M 1085 477 L 743 546" fill="none" stroke="#000000" stroke-miterlimit="10" pointer-events="none"/><ellipse cx="984" cy="984" rx="40" ry="20" fill="#7acff5" stroke="#000000" pointer-events="none"/><g fill="#000000" font-family="Helvetica" text-anchor="middle" font-size="12px"><text x="983" y="987.5">Log out</text></g><path d="M 1156 928 L 1024 964" fill="none" stroke="#000000" stroke-miterlimit="10" pointer-events="none"/><path d="M 454.36 1109.43 L 346 1200" fill="none" stroke="#000000" stroke-miterlimit="10" stroke-dasharray="4" pointer-events="none"/><path d="M 449.85 1121.02 L 455.21 1108.72 L 442.16 1111.81" fill="none" stroke="#000000" stroke-miterlimit="10" pointer-events="none"/><g fill="#000000" font-family="Helvetica" text-anchor="middle" font-size="11px"><text x="400.33" y="1157.17">&lt;&lt;Extend&gt;&gt;</text></g><path d="M 1382 697 L 1158.15 633.61" fill="none" stroke="#000000" stroke-miterlimit="10" stroke-dasharray="4" pointer-events="none"/><path d="M 1170.26 630.8 L 1157.08 633.3 L 1166.99 642.35" fill="none" stroke="#000000" stroke-miterlimit="10" pointer-events="none"/><g fill="#000000" font-family="Helvetica" text-anchor="middle" font-size="11px"><text x="1268.93" y="668.12">&lt;&lt;Include&gt;&gt;</text></g><path d="M 1379.26 696.5 L 1063.5 696.5" fill="none" stroke="#000000" stroke-miterlimit="10" stroke-dasharray="4" pointer-events="none"/><path d="M 1368.38 702.5 L 1380.38 696.5 L 1368.38 690.5" fill="none" stroke="#000000" stroke-miterlimit="10" pointer-events="none"/><g fill="#000000" font-family="Helvetica" text-anchor="middle" font-size="11px"><text x="1222" y="699.5">&lt;&lt;Extend&gt;&gt;</text></g><path d="M 1462.53 723.76 L 1593.1 810.5" fill="none" stroke="#000000" stroke-miterlimit="10" pointer-events="none"/><path d="M 1452.54 717.12 L 1465.85 718.76 L 1459.21 728.76 Z" fill="none" stroke="#000000" stroke-miterlimit="10" pointer-events="none"/><path d="M 1424.65 729.85 L 1447 838" fill="none" stroke="#000000" stroke-miterlimit="10" pointer-events="none"/><path d="M 1422.23 718.09 L 1430.53 728.63 L 1418.78 731.06 Z" fill="none" stroke="#000000" stroke-miterlimit="10" pointer-events="none"/><path d="M 675 838 L 1382 697" fill="none" stroke="#000000" stroke-miterlimit="10" pointer-events="none"/><path d="M 1379.56 729.89 L 1312.54 1084" fill="none" stroke="#000000" stroke-miterlimit="10" pointer-events="none"/><path d="M 1381.79 718.1 L 1385.46 731 L 1373.67 728.77 Z" fill="none" stroke="#000000" stroke-miterlimit="10" pointer-events="none"/><path d="M 1421.64 674.79 L 1372.97 373.5" fill="none" stroke="#000000" stroke-miterlimit="10" stroke-dasharray="4" pointer-events="none"/><path d="M 1413.98 665.01 L 1421.82 675.9 L 1425.83 663.09" fill="none" stroke="#000000" stroke-miterlimit="10" pointer-events="none"/><g fill="#000000" font-family="Helvetica" text-anchor="middle" font-size="11px"><text x="1396.94" y="527.97">&lt;&lt;Extend&gt;&gt;</text></g><path d="M 1382 697 L 1158.15 633.61" fill="none" stroke="#000000" stroke-miterlimit="10" stroke-dasharray="4" pointer-events="none"/><path d="M 1170.26 630.8 L 1157.08 633.3 L 1166.99 642.35" fill="none" stroke="#000000" stroke-miterlimit="10" pointer-events="none"/><g fill="#000000" font-family="Helvetica" text-anchor="middle" font-size="11px"><text x="1268.93" y="668.12">&lt;&lt;Include&gt;&gt;</text></g><path d="M 1379.26 696.5 L 1063.5 696.5" fill="none" stroke="#000000" stroke-miterlimit="10" stroke-dasharray="4" pointer-events="none"/><path d="M 1368.38 702.5 L 1380.38 696.5 L 1368.38 690.5" fill="none" stroke="#000000" stroke-miterlimit="10" pointer-events="none"/><g fill="#000000" font-family="Helvetica" text-anchor="middle" font-size="11px"><text x="1222" y="699.5">&lt;&lt;Extend&gt;&gt;</text></g><path d="M 1462.53 723.76 L 1593.1 810.5" fill="none" stroke="#000000" stroke-miterlimit="10" pointer-events="none"/><path d="M 1452.54 717.12 L 1465.85 718.76 L 1459.21 728.76 Z" fill="none" stroke="#000000" stroke-miterlimit="10" pointer-events="none"/><path d="M 1627.3 808.33 L 1609.86 736.5" fill="none" stroke="#000000" stroke-miterlimit="10" stroke-dasharray="4" pointer-events="none"/><path d="M 1618.9 799.17 L 1627.56 809.41 L 1630.56 796.34" fill="none" stroke="#000000" stroke-miterlimit="10" pointer-events="none"/><g fill="#000000" font-family="Helvetica" text-anchor="middle" font-size="11px"><text x="1618.36" y="776.57">&lt;&lt;Extend&gt;&gt;</text></g><path d="M 1501.71 857.42 L 1579 846.12" fill="none" stroke="#000000" stroke-miterlimit="10" stroke-dasharray="4" pointer-events="none"/><path d="M 1511.61 849.91 L 1500.61 857.59 L 1513.35 861.79" fill="none" stroke="#000000" stroke-miterlimit="10" pointer-events="none"/><g fill="#000000" font-family="Helvetica" text-anchor="middle" font-size="11px"><text x="1538.58" y="854.96">&lt;&lt;Extend&gt;&gt;</text></g><path d="M 1599.52 866.92 L 1337.02 1084" fill="none" stroke="#000000" stroke-miterlimit="10" stroke-dasharray="4" pointer-events="none"/><path d="M 1594.96 878.48 L 1600.38 866.21 L 1587.31 869.24" fill="none" stroke="#000000" stroke-miterlimit="10" pointer-events="none"/><g fill="#000000" font-family="Helvetica" text-anchor="middle" font-size="11px"><text x="1468.97" y="977.47">&lt;&lt;Extend&gt;&gt;</text></g><path d="M 1424.65 729.85 L 1447 838" fill="none" stroke="#000000" stroke-miterlimit="10" pointer-events="none"/><path d="M 1422.23 718.09 L 1430.53 728.63 L 1418.78 731.06 Z" fill="none" stroke="#000000" stroke-miterlimit="10" pointer-events="none"/><path d="M 1501.71 857.42 L 1579 846.12" fill="none" stroke="#000000" stroke-miterlimit="10" stroke-dasharray="4" pointer-events="none"/><path d="M 1511.61 849.91 L 1500.61 857.59 L 1513.35 861.79" fill="none" stroke="#000000" stroke-miterlimit="10" pointer-events="none"/><g fill="#000000" font-family="Helvetica" text-anchor="middle" font-size="11px"><text x="1538.58" y="854.96">&lt;&lt;Extend&gt;&gt;</text></g><path d="M 1445.78 895.88 L 1323.59 1084" fill="none" stroke="#000000" stroke-miterlimit="10" stroke-dasharray="4" pointer-events="none"/><path d="M 1444.89 908.27 L 1446.39 894.94 L 1434.82 901.73" fill="none" stroke="#000000" stroke-miterlimit="10" pointer-events="none"/><g fill="#000000" font-family="Helvetica" text-anchor="middle" font-size="11px"><text x="1384.95" y="991.76">&lt;&lt;Extend&gt;&gt;</text></g><path d="M 675 844.49 L 1075 818.54" fill="none" stroke="#000000" stroke-miterlimit="10" pointer-events="none"/><path d="M 254.15 352.6 L 343.5 377.37" fill="none" stroke="#000000" stroke-miterlimit="10" stroke-dasharray="4" pointer-events="none"/><path d="M 266.24 349.72 L 253.08 352.3 L 263.04 361.29" fill="none" stroke="#000000" stroke-miterlimit="10" pointer-events="none"/><g fill="#000000" font-family="Helvetica" text-anchor="middle" font-size="11px"><text x="296.79" y="367.56">&lt;&lt;Extend&gt;&gt;</text></g><path d="M 344 662 L 344 394" fill="none" stroke="#000000" stroke-miterlimit="10" pointer-events="none"/><path d="M 1627.3 808.33 L 1609.86 736.5" fill="none" stroke="#000000" stroke-miterlimit="10" stroke-dasharray="4" pointer-events="none"/><path d="M 1618.9 799.17 L 1627.56 809.41 L 1630.56 796.34" fill="none" stroke="#000000" stroke-miterlimit="10" pointer-events="none"/><g fill="#000000" font-family="Helvetica" text-anchor="middle" font-size="11px"><text x="1618.36" y="776.57">&lt;&lt;Extend&gt;&gt;</text></g><path d="M 477.83 1067.45 L 346 1034" fill="none" stroke="#000000" stroke-miterlimit="10" stroke-dasharray="4" pointer-events="none"/><path d="M 465.81 1070.59 L 478.92 1067.73 L 468.76 1058.96" fill="none" stroke="#000000" stroke-miterlimit="10" pointer-events="none"/><g fill="#000000" font-family="Helvetica" text-anchor="middle" font-size="11px"><text x="412.62" y="1054.03">&lt;&lt;Extend&gt;&gt;</text></g><path d="M 346 1014 L 648 853" fill="none" stroke="#000000" stroke-miterlimit="10" pointer-events="none"/><path d="M 477.83 1067.45 L 346 1034" fill="none" stroke="#000000" stroke-miterlimit="10" stroke-dasharray="4" pointer-events="none"/><path d="M 465.81 1070.59 L 478.92 1067.73 L 468.76 1058.96" fill="none" stroke="#000000" stroke-miterlimit="10" pointer-events="none"/><g fill="#000000" font-family="Helvetica" text-anchor="middle" font-size="11px"><text x="412.62" y="1054.03">&lt;&lt;Extend&gt;&gt;</text></g><path d="M 489.34 1108 L 528.31 1191.47" fill="none" stroke="#000000" stroke-miterlimit="10" stroke-dasharray="4" pointer-events="none"/><path d="M 518.27 1184.15 L 528.79 1192.49 L 529.15 1179.08" fill="none" stroke="#000000" stroke-miterlimit="10" pointer-events="none"/><g fill="#000000" font-family="Helvetica" text-anchor="middle" font-size="11px"><text x="508.72" y="1153.59">&lt;&lt;Include&gt;&gt;</text></g><path d="M 454.36 1109.43 L 346 1200" fill="none" stroke="#000000" stroke-miterlimit="10" stroke-dasharray="4" pointer-events="none"/><path d="M 449.85 1121.02 L 455.21 1108.72 L 442.16 1111.81" fill="none" stroke="#000000" stroke-miterlimit="10" pointer-events="none"/><g fill="#000000" font-family="Helvetica" text-anchor="middle" font-size="11px"><text x="400.33" y="1157.17">&lt;&lt;Extend&gt;&gt;</text></g><path d="M 520 1068 L 656 868" fill="none" stroke="#000000" stroke-miterlimit="10" pointer-events="none"/><path d="M 489.34 1108 L 528.31 1191.47" fill="none" stroke="#000000" stroke-miterlimit="10" stroke-dasharray="4" pointer-events="none"/><path d="M 518.27 1184.15 L 528.79 1192.49 L 529.15 1179.08" fill="none" stroke="#000000" stroke-miterlimit="10" pointer-events="none"/><g fill="#000000" font-family="Helvetica" text-anchor="middle" font-size="11px"><text x="508.72" y="1153.59">&lt;&lt;Include&gt;&gt;</text></g><path d="M 252 352 L 344 692" fill="none" stroke="#000000" stroke-miterlimit="10" pointer-events="none"/><path d="M 254.15 352.6 L 343.5 377.37" fill="none" stroke="#000000" stroke-miterlimit="10" stroke-dasharray="4" pointer-events="none"/><path d="M 266.24 349.72 L 253.08 352.3 L 263.04 361.29" fill="none" stroke="#000000" stroke-miterlimit="10" pointer-events="none"/><g fill="#000000" font-family="Helvetica" text-anchor="middle" font-size="11px"><text x="296.79" y="367.56">&lt;&lt;Extend&gt;&gt;</text></g><path d="M 528 513 L 374 662" fill="none" stroke="#000000" stroke-miterlimit="10" pointer-events="none"/><path d="M 472 454 L 366 647" fill="none" stroke="#000000" stroke-miterlimit="10" pointer-events="none"/><path d="M 240 607 L 344 692" fill="none" stroke="#000000" stroke-miterlimit="10" pointer-events="none"/><path d="M 691.02 854.59 L 1155.5 911.17" fill="none" stroke="#000000" stroke-miterlimit="10" pointer-events="none"/><path d="M 679.11 853.14 L 691.75 848.63 L 690.3 860.54 Z" fill="none" stroke="#000000" stroke-miterlimit="10" pointer-events="none"/><path d="M 520 1068 L 656 868" fill="none" stroke="#000000" stroke-miterlimit="10" pointer-events="none"/><path d="M 346 1014 L 648 853" fill="none" stroke="#000000" stroke-miterlimit="10" pointer-events="none"/><path d="M 681.49 800.13 L 1092 492" fill="none" stroke="#000000" stroke-miterlimit="10" pointer-events="none"/><path d="M 671.89 807.33 L 677.89 795.33 L 685.09 804.92 Z" fill="none" stroke="#000000" stroke-miterlimit="10" pointer-events="none"/><path d="M 647.56 803.83 L 359 707" fill="none" stroke="#000000" stroke-miterlimit="10" pointer-events="none"/><path d="M 658.94 807.64 L 645.65 809.52 L 649.47 798.14 Z" fill="none" stroke="#000000" stroke-miterlimit="10" pointer-events="none"/><path d="M 252 352 L 344 692" fill="none" stroke="#000000" stroke-miterlimit="10" pointer-events="none"/><path d="M 344 662 L 344 394" fill="none" stroke="#000000" stroke-miterlimit="10" pointer-events="none"/><path d="M 528 513 L 374 662" fill="none" stroke="#000000" stroke-miterlimit="10" pointer-events="none"/><path d="M 472 454 L 366 647" fill="none" stroke="#000000" stroke-miterlimit="10" pointer-events="none"/><path d="M 240 607 L 344 692" fill="none" stroke="#000000" stroke-miterlimit="10" pointer-events="none"/><path d="M 374 677 L 663 566" fill="none" stroke="#000000" stroke-miterlimit="10" pointer-events="none"/><path d="M 1599.52 866.92 L 1337.02 1084" fill="none" stroke="#000000" stroke-miterlimit="10" stroke-dasharray="4" pointer-events="none"/><path d="M 1594.96 878.48 L 1600.38 866.21 L 1587.31 869.24" fill="none" stroke="#000000" stroke-miterlimit="10" pointer-events="none"/><g fill="#000000" font-family="Helvetica" text-anchor="middle" font-size="11px"><text x="1468.97" y="977.47">&lt;&lt;Extend&gt;&gt;</text></g><path d="M 1445.78 895.88 L 1323.59 1084" fill="none" stroke="#000000" stroke-miterlimit="10" stroke-dasharray="4" pointer-events="none"/><path d="M 1444.89 908.27 L 1446.39 894.94 L 1434.82 901.73" fill="none" stroke="#000000" stroke-miterlimit="10" pointer-events="none"/><g fill="#000000" font-family="Helvetica" text-anchor="middle" font-size="11px"><text x="1384.95" y="991.76">&lt;&lt;Extend&gt;&gt;</text></g><path d="M 1340.18 1133.38 L 1395.48 1177" fill="none" stroke="#000000" stroke-miterlimit="10" stroke-dasharray="4" pointer-events="none"/><path d="M 1352.44 1135.41 L 1339.3 1132.69 L 1345.01 1144.84" fill="none" stroke="#000000" stroke-miterlimit="10" pointer-events="none"/><g fill="#000000" font-family="Helvetica" text-anchor="middle" font-size="11px"><text x="1366.19" y="1157.3">&lt;&lt;Extend&gt;&gt;</text></g><path d="M 1185.5 934.27 L 1291.08 1084" fill="none" stroke="#000000" stroke-miterlimit="10" pointer-events="none"/><path d="M 1379.56 729.89 L 1312.54 1084" fill="none" stroke="#000000" stroke-miterlimit="10" pointer-events="none"/><path d="M 1381.79 718.1 L 1385.46 731 L 1373.67 728.77 Z" fill="none" stroke="#000000" stroke-miterlimit="10" pointer-events="none"/><path d="M 1340.18 1133.38 L 1395.48 1177" fill="none" stroke="#000000" stroke-miterlimit="10" stroke-dasharray="4" pointer-events="none"/><path d="M 1352.44 1135.41 L 1339.3 1132.69 L 1345.01 1144.84" fill="none" stroke="#000000" stroke-miterlimit="10" pointer-events="none"/><g fill="#000000" font-family="Helvetica" text-anchor="middle" font-size="11px"><text x="1366.19" y="1157.3">&lt;&lt;Extend&gt;&gt;</text></g><path d="M 1176.89 943 L 1240.1 1239.5" fill="none" stroke="#000000" stroke-miterlimit="10" pointer-events="none"/><path d="M 1185.5 934.27 L 1291.08 1084" fill="none" stroke="#000000" stroke-miterlimit="10" pointer-events="none"/><path d="M 1176.89 943 L 1240.1 1239.5" fill="none" stroke="#000000" stroke-miterlimit="10" pointer-events="none"/><path d="M 691.02 854.59 L 1155.5 911.17" fill="none" stroke="#000000" stroke-miterlimit="10" pointer-events="none"/><path d="M 679.11 853.14 L 691.75 848.63 L 690.3 860.54 Z" fill="none" stroke="#000000" stroke-miterlimit="10" pointer-events="none"/><path d="M 1156 928 L 1024 964" fill="none" stroke="#000000" stroke-miterlimit="10" pointer-events="none"/><path d="M 1040.61 183.25 L 1149.69 47" fill="none" stroke="#000000" stroke-miterlimit="10" stroke-dasharray="4" pointer-events="none"/><path d="M 1042.73 171.01 L 1039.91 184.13 L 1052.09 178.51" fill="none" stroke="#000000" stroke-miterlimit="10" pointer-events="none"/><g fill="#000000" font-family="Helvetica" text-anchor="middle" font-size="11px"><text x="1093.71" y="119.3">&lt;&lt;Extend&gt;&gt;</text></g><path d="M 1185.12 48.87 L 1370 331" fill="none" stroke="#000000" stroke-miterlimit="10" stroke-dasharray="4" pointer-events="none"/><path d="M 1196.11 54.68 L 1184.51 47.94 L 1186.07 61.26" fill="none" stroke="#000000" stroke-miterlimit="10" pointer-events="none"/><g fill="#000000" font-family="Helvetica" text-anchor="middle" font-size="11px"><text x="1276.57" y="192.19">&lt;&lt;Extend&gt;&gt;</text></g><path d="M 1380.72 318.04 L 1402.89 251" fill="none" stroke="#000000" stroke-miterlimit="10" pointer-events="none"/><path d="M 1376.96 329.44 L 1375.03 316.16 L 1386.42 319.93 Z" fill="none" stroke="#000000" stroke-miterlimit="10" pointer-events="none"/><path d="M 1264.89 340.39 L 1215.52 246.5" fill="none" stroke="#000000" stroke-miterlimit="10" pointer-events="none"/><path d="M 1270.48 351.01 L 1259.58 343.18 L 1270.2 337.6 Z" fill="none" stroke="#000000" stroke-miterlimit="10" pointer-events="none"/><path d="M 1084.5 449.43 L 987.36 368" fill="none" stroke="#000000" stroke-miterlimit="10" pointer-events="none"/><path d="M 1040.61 183.25 L 1149.69 47" fill="none" stroke="#000000" stroke-miterlimit="10" stroke-dasharray="4" pointer-events="none"/><path d="M 1042.73 171.01 L 1039.91 184.13 L 1052.09 178.51" fill="none" stroke="#000000" stroke-miterlimit="10" pointer-events="none"/><g fill="#000000" font-family="Helvetica" text-anchor="middle" font-size="11px"><text x="1093.71" y="119.3">&lt;&lt;Extend&gt;&gt;</text></g><path d="M 1090.4 432 L 1028.52 228" fill="none" stroke="#000000" stroke-miterlimit="10" pointer-events="none"/><path d="M 1264.89 340.39 L 1215.52 246.5" fill="none" stroke="#000000" stroke-miterlimit="10" pointer-events="none"/><path d="M 1270.48 351.01 L 1259.58 343.18 L 1270.2 337.6 Z" fill="none" stroke="#000000" stroke-miterlimit="10" pointer-events="none"/><path d="M 1380.72 318.04 L 1402.89 251" fill="none" stroke="#000000" stroke-miterlimit="10" pointer-events="none"/><path d="M 1376.96 329.44 L 1375.03 316.16 L 1386.42 319.93 Z" fill="none" stroke="#000000" stroke-miterlimit="10" pointer-events="none"/><path d="M 1185.12 48.87 L 1370 331" fill="none" stroke="#000000" stroke-miterlimit="10" stroke-dasharray="4" pointer-events="none"/><path d="M 1196.11 54.68 L 1184.51 47.94 L 1186.07 61.26" fill="none" stroke="#000000" stroke-miterlimit="10" pointer-events="none"/><g fill="#000000" font-family="Helvetica" text-anchor="middle" font-size="11px"><text x="1276.57" y="192.19">&lt;&lt;Extend&gt;&gt;</text></g><path d="M 1421.64 674.79 L 1372.97 373.5" fill="none" stroke="#000000" stroke-miterlimit="10" stroke-dasharray="4" pointer-events="none"/><path d="M 1413.98 665.01 L 1421.82 675.9 L 1425.83 663.09" fill="none" stroke="#000000" stroke-miterlimit="10" pointer-events="none"/><g fill="#000000" font-family="Helvetica" text-anchor="middle" font-size="11px"><text x="1396.94" y="527.97">&lt;&lt;Extend&gt;&gt;</text></g><path d="M 1423.11 324.52 L 1488.49 291" fill="none" stroke="#000000" stroke-miterlimit="10" pointer-events="none"/><path d="M 1412.43 329.99 L 1420.37 319.18 L 1425.85 329.85 Z" fill="none" stroke="#000000" stroke-miterlimit="10" pointer-events="none"/><path d="M 1114.5 455.89 L 1316.73 373.5" fill="none" stroke="#000000" stroke-miterlimit="10" pointer-events="none"/><path d="M 1468 332.51 L 1593.31 307.7" fill="none" stroke="#000000" stroke-miterlimit="10" stroke-dasharray="4" pointer-events="none"/><path d="M 1583.8 315.7 L 1594.4 307.49 L 1581.47 303.93" fill="none" stroke="#000000" stroke-miterlimit="10" pointer-events="none"/><g fill="#000000" font-family="Helvetica" text-anchor="middle" font-size="11px"><text x="1531.26" y="322.89">&lt;&lt;Include&gt;&gt;</text></g><path d="M 1114.5 455.89 L 1316.73 373.5" fill="none" stroke="#000000" stroke-miterlimit="10" pointer-events="none"/><path d="M 1084.5 449.43 L 987.36 368" fill="none" stroke="#000000" stroke-miterlimit="10" pointer-events="none"/><path d="M 1090.4 432 L 1028.52 228" fill="none" stroke="#000000" stroke-miterlimit="10" pointer-events="none"/><path d="M 681.49 800.13 L 1092 492" fill="none" stroke="#000000" stroke-miterlimit="10" pointer-events="none"/><path d="M 671.89 807.33 L 677.89 795.33 L 685.09 804.92 Z" fill="none" stroke="#000000" stroke-miterlimit="10" pointer-events="none"/><path d="M 1085 477 L 743 546" fill="none" stroke="#000000" stroke-miterlimit="10" pointer-events="none"/><path d="M 1423.11 324.52 L 1488.49 291" fill="none" stroke="#000000" stroke-miterlimit="10" pointer-events="none"/><path d="M 1412.43 329.99 L 1420.37 319.18 L 1425.85 329.85 Z" fill="none" stroke="#000000" stroke-miterlimit="10" pointer-events="none"/><path d="M 1468 332.51 L 1593.31 307.7" fill="none" stroke="#000000" stroke-miterlimit="10" stroke-dasharray="4" pointer-events="none"/><path d="M 1583.8 315.7 L 1594.4 307.49 L 1581.47 303.93" fill="none" stroke="#000000" stroke-miterlimit="10" pointer-events="none"/><g fill="#000000" font-family="Helvetica" text-anchor="middle" font-size="11px"><text x="1531.26" y="322.89">&lt;&lt;Include&gt;&gt;</text></g><path d="M 374 677 L 663 566" fill="none" stroke="#000000" stroke-miterlimit="10" pointer-events="none"/><path d="M 1085 477 L 743 546" fill="none" stroke="#000000" stroke-miterlimit="10" pointer-events="none"/><path d="M 1156 928 L 1024 964" fill="none" stroke="#000000" stroke-miterlimit="10" pointer-events="none"/></g><g fill="#787878" font-family="Arial,Helvetica" font-size="12px"><text x="6" y="15">Visual Paradigm Online Express Edition</text></g><g fill="#787878" font-family="Arial,Helvetica" text-anchor="end" font-size="12px"><text x="1717" y="1282">Visual Paradigm Online Express Edition</text></g></svg>